<?xml version="1.0" encoding="utf-8" standalone="no"?>
<!DOCTYPE svg PUBLIC "-//W3C//DTD SVG 1.1//EN"
  "http://www.w3.org/Graphics/SVG/1.1/DTD/svg11.dtd">
<!-- Created with matplotlib (https://matplotlib.org/) -->
<svg height="733.812812pt" version="1.1" viewBox="0 0 434.45875 733.812812" width="434.45875pt" xmlns="http://www.w3.org/2000/svg" xmlns:xlink="http://www.w3.org/1999/xlink">
 <metadata>
  <rdf:RDF xmlns:cc="http://creativecommons.org/ns#" xmlns:dc="http://purl.org/dc/elements/1.1/" xmlns:rdf="http://www.w3.org/1999/02/22-rdf-syntax-ns#">
   <cc:Work>
    <dc:type rdf:resource="http://purl.org/dc/dcmitype/StillImage"/>
    <dc:date>2021-07-29T01:36:52.969618</dc:date>
    <dc:format>image/svg+xml</dc:format>
    <dc:creator>
     <cc:Agent>
      <dc:title>Matplotlib v3.3.3, https://matplotlib.org/</dc:title>
     </cc:Agent>
    </dc:creator>
   </cc:Work>
  </rdf:RDF>
 </metadata>
 <defs>
  <style type="text/css">*{stroke-linecap:butt;stroke-linejoin:round;}</style>
 </defs>
 <g id="figure_1">
  <g id="patch_1">
   <path d="M 0 733.812812 
L 434.45875 733.812812 
L 434.45875 0 
L 0 0 
z
" style="fill:none;"/>
  </g>
  <g id="axes_1">
   <g id="patch_2">
    <path d="M 92.45875 680.078437 
L 427.25875 680.078437 
L 427.25875 14.798437 
L 92.45875 14.798437 
z
" style="fill:none;"/>
   </g>
   <g id="PolyCollection_1">
    <path clip-path="url(#pa01d19ab50)" d="M 107.676932 199.141477 
L 107.676932 211.890661 
L 209.131477 578.695813 
L 310.586023 623.209093 
L 412.040568 638.40167 
L 412.040568 629.257094 
L 412.040568 629.257094 
L 310.586023 614.766085 
L 209.131477 563.273413 
L 107.676932 199.141477 
z
" style="fill:#e41a1c;fill-opacity:0.2;"/>
   </g>
   <g id="PolyCollection_2">
    <path clip-path="url(#pa01d19ab50)" d="M 107.676932 69.514694 
L 107.676932 74.969989 
L 209.131477 310.678694 
L 310.586023 503.706661 
L 412.040568 554.927174 
L 412.040568 546.459973 
L 412.040568 546.459973 
L 310.586023 498.432805 
L 209.131477 297.373094 
L 107.676932 69.514694 
z
" style="fill:#377eb8;fill-opacity:0.2;"/>
   </g>
   <g id="PolyCollection_3">
    <path clip-path="url(#pa01d19ab50)" d="M 107.676932 69.303013 
L 107.676932 74.782501 
L 209.131477 265.699717 
L 310.586023 474.482726 
L 412.040568 541.101445 
L 412.040568 533.892229 
L 412.040568 533.892229 
L 310.586023 469.995109 
L 209.131477 257.667973 
L 107.676932 69.303013 
z
" style="fill:#4daf4a;fill-opacity:0.2;"/>
   </g>
   <g id="PolyCollection_4">
    <path clip-path="url(#pa01d19ab50)" d="M 107.676932 69.006661 
L 107.676932 74.570821 
L 209.131477 237.437413 
L 310.586023 407.622085 
L 412.040568 523.036069 
L 412.040568 516.201829 
L 412.040568 516.201829 
L 310.586023 401.876485 
L 209.131477 228.800869 
L 107.676932 69.006661 
z
" style="fill:#984ea3;fill-opacity:0.2;"/>
   </g>
   <g id="PolyCollection_5">
    <path clip-path="url(#pa01d19ab50)" d="M 107.676932 69.623557 
L 107.676932 74.885317 
L 209.131477 217.412486 
L 310.586023 353.456197 
L 412.040568 482.847109 
L 412.040568 477.307141 
L 412.040568 477.307141 
L 310.586023 349.30727 
L 209.131477 211.037893 
L 107.676932 69.623557 
z
" style="fill:#ff7f00;fill-opacity:0.2;"/>
   </g>
   <g id="PolyCollection_6">
    <path clip-path="url(#pa01d19ab50)" d="M 107.676932 199.141477 
L 107.676932 211.890661 
L 209.131477 578.695813 
L 310.586023 623.209093 
L 412.040568 638.40167 
L 412.040568 629.257094 
L 412.040568 629.257094 
L 310.586023 614.766085 
L 209.131477 563.273413 
L 107.676932 199.141477 
z
" style="fill:#e41a1c;fill-opacity:0.2;"/>
   </g>
   <g id="PolyCollection_7">
    <path clip-path="url(#pa01d19ab50)" d="M 107.676932 69.514694 
L 107.676932 74.969989 
L 209.131477 310.678694 
L 310.586023 503.706661 
L 412.040568 554.927174 
L 412.040568 546.459973 
L 412.040568 546.459973 
L 310.586023 498.432805 
L 209.131477 297.373094 
L 107.676932 69.514694 
z
" style="fill:#377eb8;fill-opacity:0.2;"/>
   </g>
   <g id="PolyCollection_8">
    <path clip-path="url(#pa01d19ab50)" d="M 107.676932 69.303013 
L 107.676932 74.782501 
L 209.131477 265.699717 
L 310.586023 474.482726 
L 412.040568 541.101445 
L 412.040568 533.892229 
L 412.040568 533.892229 
L 310.586023 469.995109 
L 209.131477 257.667973 
L 107.676932 69.303013 
z
" style="fill:#4daf4a;fill-opacity:0.2;"/>
   </g>
   <g id="PolyCollection_9">
    <path clip-path="url(#pa01d19ab50)" d="M 107.676932 69.006661 
L 107.676932 74.570821 
L 209.131477 237.437413 
L 310.586023 407.622085 
L 412.040568 523.036069 
L 412.040568 516.201829 
L 412.040568 516.201829 
L 310.586023 401.876485 
L 209.131477 228.800869 
L 107.676932 69.006661 
z
" style="fill:#984ea3;fill-opacity:0.2;"/>
   </g>
   <g id="PolyCollection_10">
    <path clip-path="url(#pa01d19ab50)" d="M 107.676932 69.623557 
L 107.676932 74.885317 
L 209.131477 217.412486 
L 310.586023 353.456197 
L 412.040568 482.847109 
L 412.040568 477.307141 
L 412.040568 477.307141 
L 310.586023 349.30727 
L 209.131477 211.037893 
L 107.676932 69.623557 
z
" style="fill:#ff7f00;fill-opacity:0.2;"/>
   </g>
   <g id="matplotlib.axis_1">
    <g id="xtick_1">
     <g id="line2d_1">
      <defs>
       <path d="M 0 0 
L 0 10 
" id="m6d31a04c5e" style="stroke:#000000;"/>
      </defs>
      <g>
       <use style="stroke:#000000;" x="107.676932" xlink:href="#m6d31a04c5e" y="680.078437"/>
      </g>
     </g>
     <g id="text_1">
      <!-- 1 -->
      <g transform="translate(101.314432 708.775312)scale(0.2 -0.2)">
       <defs>
        <path d="M 12.40625 8.296875 
L 28.515625 8.296875 
L 28.515625 63.921875 
L 10.984375 60.40625 
L 10.984375 69.390625 
L 28.421875 72.90625 
L 38.28125 72.90625 
L 38.28125 8.296875 
L 54.390625 8.296875 
L 54.390625 0 
L 12.40625 0 
z
" id="DejaVuSans-49"/>
       </defs>
       <use xlink:href="#DejaVuSans-49"/>
      </g>
     </g>
    </g>
    <g id="xtick_2">
     <g id="line2d_2">
      <g>
       <use style="stroke:#000000;" x="209.131477" xlink:href="#m6d31a04c5e" y="680.078437"/>
      </g>
     </g>
     <g id="text_2">
      <!-- 2 -->
      <g transform="translate(202.768977 708.775312)scale(0.2 -0.2)">
       <defs>
        <path d="M 19.1875 8.296875 
L 53.609375 8.296875 
L 53.609375 0 
L 7.328125 0 
L 7.328125 8.296875 
Q 12.9375 14.109375 22.625 23.890625 
Q 32.328125 33.6875 34.8125 36.53125 
Q 39.546875 41.84375 41.421875 45.53125 
Q 43.3125 49.21875 43.3125 52.78125 
Q 43.3125 58.59375 39.234375 62.25 
Q 35.15625 65.921875 28.609375 65.921875 
Q 23.96875 65.921875 18.8125 64.3125 
Q 13.671875 62.703125 7.8125 59.421875 
L 7.8125 69.390625 
Q 13.765625 71.78125 18.9375 73 
Q 24.125 74.21875 28.421875 74.21875 
Q 39.75 74.21875 46.484375 68.546875 
Q 53.21875 62.890625 53.21875 53.421875 
Q 53.21875 48.921875 51.53125 44.890625 
Q 49.859375 40.875 45.40625 35.40625 
Q 44.1875 33.984375 37.640625 27.21875 
Q 31.109375 20.453125 19.1875 8.296875 
z
" id="DejaVuSans-50"/>
       </defs>
       <use xlink:href="#DejaVuSans-50"/>
      </g>
     </g>
    </g>
    <g id="xtick_3">
     <g id="line2d_3">
      <g>
       <use style="stroke:#000000;" x="310.586023" xlink:href="#m6d31a04c5e" y="680.078437"/>
      </g>
     </g>
     <g id="text_3">
      <!-- 3 -->
      <g transform="translate(304.223523 708.775312)scale(0.2 -0.2)">
       <defs>
        <path d="M 40.578125 39.3125 
Q 47.65625 37.796875 51.625 33 
Q 55.609375 28.21875 55.609375 21.1875 
Q 55.609375 10.40625 48.1875 4.484375 
Q 40.765625 -1.421875 27.09375 -1.421875 
Q 22.515625 -1.421875 17.65625 -0.515625 
Q 12.796875 0.390625 7.625 2.203125 
L 7.625 11.71875 
Q 11.71875 9.328125 16.59375 8.109375 
Q 21.484375 6.890625 26.8125 6.890625 
Q 36.078125 6.890625 40.9375 10.546875 
Q 45.796875 14.203125 45.796875 21.1875 
Q 45.796875 27.640625 41.28125 31.265625 
Q 36.765625 34.90625 28.71875 34.90625 
L 20.21875 34.90625 
L 20.21875 43.015625 
L 29.109375 43.015625 
Q 36.375 43.015625 40.234375 45.921875 
Q 44.09375 48.828125 44.09375 54.296875 
Q 44.09375 59.90625 40.109375 62.90625 
Q 36.140625 65.921875 28.71875 65.921875 
Q 24.65625 65.921875 20.015625 65.03125 
Q 15.375 64.15625 9.8125 62.3125 
L 9.8125 71.09375 
Q 15.4375 72.65625 20.34375 73.4375 
Q 25.25 74.21875 29.59375 74.21875 
Q 40.828125 74.21875 47.359375 69.109375 
Q 53.90625 64.015625 53.90625 55.328125 
Q 53.90625 49.265625 50.4375 45.09375 
Q 46.96875 40.921875 40.578125 39.3125 
z
" id="DejaVuSans-51"/>
       </defs>
       <use xlink:href="#DejaVuSans-51"/>
      </g>
     </g>
    </g>
    <g id="xtick_4">
     <g id="line2d_4">
      <g>
       <use style="stroke:#000000;" x="412.040568" xlink:href="#m6d31a04c5e" y="680.078437"/>
      </g>
     </g>
     <g id="text_4">
      <!-- 4 -->
      <g transform="translate(405.678068 708.775312)scale(0.2 -0.2)">
       <defs>
        <path d="M 37.796875 64.3125 
L 12.890625 25.390625 
L 37.796875 25.390625 
z
M 35.203125 72.90625 
L 47.609375 72.90625 
L 47.609375 25.390625 
L 58.015625 25.390625 
L 58.015625 17.1875 
L 47.609375 17.1875 
L 47.609375 0 
L 37.796875 0 
L 37.796875 17.1875 
L 4.890625 17.1875 
L 4.890625 26.703125 
z
" id="DejaVuSans-52"/>
       </defs>
       <use xlink:href="#DejaVuSans-52"/>
      </g>
     </g>
    </g>
    <g id="text_5">
     <!-- $N_e$ -->
     <g transform="translate(253.85875 724.533125)scale(0.1 -0.1)">
      <defs>
       <path d="M 4.6875 0 
Q 3.71875 0 3.71875 1.3125 
Q 3.765625 1.5625 3.90625 2.171875 
Q 4.046875 2.78125 4.3125 3.140625 
Q 4.59375 3.515625 4.984375 3.515625 
Q 14.546875 3.515625 16.109375 9.625 
L 29.6875 64.3125 
Q 26.90625 64.796875 20.90625 64.796875 
Q 19.921875 64.796875 19.921875 66.109375 
Q 19.96875 66.359375 20.109375 66.96875 
Q 20.265625 67.578125 20.53125 67.9375 
Q 20.796875 68.3125 21.1875 68.3125 
L 38.484375 68.3125 
Q 39.203125 68.3125 39.40625 67.671875 
L 61.625 14.796875 
L 72.703125 59.078125 
Q 72.90625 60.15625 72.90625 60.59375 
Q 72.90625 64.796875 65.1875 64.796875 
Q 64.203125 64.796875 64.203125 66.109375 
Q 64.546875 67.390625 64.734375 67.84375 
Q 64.9375 68.3125 65.921875 68.3125 
L 87.3125 68.3125 
Q 88.28125 68.3125 88.28125 67 
Q 88.234375 66.75 88.078125 66.140625 
Q 87.9375 65.53125 87.671875 65.15625 
Q 87.40625 64.796875 87.015625 64.796875 
Q 77.4375 64.796875 75.875 58.6875 
L 61.53125 0.875 
Q 61.1875 0 60.5 0 
L 59.28125 0 
Q 58.59375 0 58.40625 0.6875 
L 32.90625 61.1875 
L 32.71875 61.8125 
Q 32.515625 62.015625 32.515625 62.109375 
L 19.28125 9.1875 
Q 19.1875 8.9375 19.140625 8.5625 
Q 19.09375 8.203125 19 7.71875 
Q 19 5.125 21.234375 4.3125 
Q 23.484375 3.515625 26.8125 3.515625 
Q 27.78125 3.515625 27.78125 2.203125 
Q 27.4375 0.828125 27.1875 0.40625 
Q 26.953125 0 26.125 0 
z
" id="Cmmi10-78"/>
       <path d="M 20.125 -1.125 
Q 15.328125 -1.125 11.734375 1.359375 
Q 8.15625 3.859375 6.265625 8.078125 
Q 4.390625 12.3125 4.390625 17 
Q 4.390625 24.125 7.984375 30.390625 
Q 11.578125 36.671875 17.71875 40.421875 
Q 23.875 44.1875 30.90625 44.1875 
Q 35.203125 44.1875 38.40625 41.96875 
Q 41.609375 39.75 41.609375 35.59375 
Q 41.609375 29.828125 37.015625 27.015625 
Q 32.421875 24.21875 26.65625 23.5625 
Q 20.90625 22.90625 13.921875 22.90625 
L 13.625 22.90625 
Q 12.015625 16.9375 12.015625 12.703125 
Q 12.015625 8.25 14.0625 4.875 
Q 16.109375 1.515625 20.3125 1.515625 
Q 26.265625 1.515625 31.75 4.25 
Q 37.25 6.984375 40.71875 11.8125 
Q 41.015625 12.109375 41.5 12.109375 
Q 42 12.109375 42.5 11.546875 
Q 43.015625 10.984375 43.015625 10.5 
Q 43.015625 10.109375 42.828125 9.90625 
Q 39.15625 4.78125 32.953125 1.828125 
Q 26.765625 -1.125 20.125 -1.125 
z
M 14.203125 25.484375 
Q 20.015625 25.484375 24.953125 26.015625 
Q 29.890625 26.5625 33.890625 28.734375 
Q 37.890625 30.90625 37.890625 35.5 
Q 37.890625 37.359375 36.859375 38.75 
Q 35.84375 40.140625 34.203125 40.875 
Q 32.5625 41.609375 30.8125 41.609375 
Q 26.5625 41.609375 23.171875 39.3125 
Q 19.78125 37.015625 17.578125 33.328125 
Q 15.375 29.640625 14.203125 25.484375 
z
" id="Cmmi10-101"/>
      </defs>
      <use transform="translate(0 0.6875)" xlink:href="#Cmmi10-78"/>
      <use transform="translate(80.322266 -16.31875)scale(0.7)" xlink:href="#Cmmi10-101"/>
     </g>
    </g>
   </g>
   <g id="matplotlib.axis_2">
    <g id="ytick_1">
     <g id="line2d_5">
      <defs>
       <path d="M 0 0 
L -10 0 
" id="m049dabf07f" style="stroke:#000000;"/>
      </defs>
      <g>
       <use style="stroke:#000000;" x="92.45875" xlink:href="#m049dabf07f" y="619.598437"/>
      </g>
     </g>
     <g id="text_6">
      <!-- 0.90 -->
      <g transform="translate(34.4275 627.196875)scale(0.2 -0.2)">
       <defs>
        <path d="M 31.78125 66.40625 
Q 24.171875 66.40625 20.328125 58.90625 
Q 16.5 51.421875 16.5 36.375 
Q 16.5 21.390625 20.328125 13.890625 
Q 24.171875 6.390625 31.78125 6.390625 
Q 39.453125 6.390625 43.28125 13.890625 
Q 47.125 21.390625 47.125 36.375 
Q 47.125 51.421875 43.28125 58.90625 
Q 39.453125 66.40625 31.78125 66.40625 
z
M 31.78125 74.21875 
Q 44.046875 74.21875 50.515625 64.515625 
Q 56.984375 54.828125 56.984375 36.375 
Q 56.984375 17.96875 50.515625 8.265625 
Q 44.046875 -1.421875 31.78125 -1.421875 
Q 19.53125 -1.421875 13.0625 8.265625 
Q 6.59375 17.96875 6.59375 36.375 
Q 6.59375 54.828125 13.0625 64.515625 
Q 19.53125 74.21875 31.78125 74.21875 
z
" id="DejaVuSans-48"/>
        <path d="M 10.6875 12.40625 
L 21 12.40625 
L 21 0 
L 10.6875 0 
z
" id="DejaVuSans-46"/>
        <path d="M 10.984375 1.515625 
L 10.984375 10.5 
Q 14.703125 8.734375 18.5 7.8125 
Q 22.3125 6.890625 25.984375 6.890625 
Q 35.75 6.890625 40.890625 13.453125 
Q 46.046875 20.015625 46.78125 33.40625 
Q 43.953125 29.203125 39.59375 26.953125 
Q 35.25 24.703125 29.984375 24.703125 
Q 19.046875 24.703125 12.671875 31.3125 
Q 6.296875 37.9375 6.296875 49.421875 
Q 6.296875 60.640625 12.9375 67.421875 
Q 19.578125 74.21875 30.609375 74.21875 
Q 43.265625 74.21875 49.921875 64.515625 
Q 56.59375 54.828125 56.59375 36.375 
Q 56.59375 19.140625 48.40625 8.859375 
Q 40.234375 -1.421875 26.421875 -1.421875 
Q 22.703125 -1.421875 18.890625 -0.6875 
Q 15.09375 0.046875 10.984375 1.515625 
z
M 30.609375 32.421875 
Q 37.25 32.421875 41.125 36.953125 
Q 45.015625 41.5 45.015625 49.421875 
Q 45.015625 57.28125 41.125 61.84375 
Q 37.25 66.40625 30.609375 66.40625 
Q 23.96875 66.40625 20.09375 61.84375 
Q 16.21875 57.28125 16.21875 49.421875 
Q 16.21875 41.5 20.09375 36.953125 
Q 23.96875 32.421875 30.609375 32.421875 
z
" id="DejaVuSans-57"/>
       </defs>
       <use xlink:href="#DejaVuSans-48"/>
       <use x="63.623047" xlink:href="#DejaVuSans-46"/>
       <use x="95.410156" xlink:href="#DejaVuSans-57"/>
       <use x="159.033203" xlink:href="#DejaVuSans-48"/>
      </g>
     </g>
    </g>
    <g id="ytick_2">
     <g id="line2d_6">
      <g>
       <use style="stroke:#000000;" x="92.45875" xlink:href="#m049dabf07f" y="498.638437"/>
      </g>
     </g>
     <g id="text_7">
      <!-- 0.92 -->
      <g transform="translate(34.4275 506.236875)scale(0.2 -0.2)">
       <use xlink:href="#DejaVuSans-48"/>
       <use x="63.623047" xlink:href="#DejaVuSans-46"/>
       <use x="95.410156" xlink:href="#DejaVuSans-57"/>
       <use x="159.033203" xlink:href="#DejaVuSans-50"/>
      </g>
     </g>
    </g>
    <g id="ytick_3">
     <g id="line2d_7">
      <g>
       <use style="stroke:#000000;" x="92.45875" xlink:href="#m049dabf07f" y="377.678437"/>
      </g>
     </g>
     <g id="text_8">
      <!-- 0.94 -->
      <g transform="translate(34.4275 385.276875)scale(0.2 -0.2)">
       <use xlink:href="#DejaVuSans-48"/>
       <use x="63.623047" xlink:href="#DejaVuSans-46"/>
       <use x="95.410156" xlink:href="#DejaVuSans-57"/>
       <use x="159.033203" xlink:href="#DejaVuSans-52"/>
      </g>
     </g>
    </g>
    <g id="ytick_4">
     <g id="line2d_8">
      <g>
       <use style="stroke:#000000;" x="92.45875" xlink:href="#m049dabf07f" y="256.718437"/>
      </g>
     </g>
     <g id="text_9">
      <!-- 0.96 -->
      <g transform="translate(34.4275 264.316875)scale(0.2 -0.2)">
       <defs>
        <path d="M 33.015625 40.375 
Q 26.375 40.375 22.484375 35.828125 
Q 18.609375 31.296875 18.609375 23.390625 
Q 18.609375 15.53125 22.484375 10.953125 
Q 26.375 6.390625 33.015625 6.390625 
Q 39.65625 6.390625 43.53125 10.953125 
Q 47.40625 15.53125 47.40625 23.390625 
Q 47.40625 31.296875 43.53125 35.828125 
Q 39.65625 40.375 33.015625 40.375 
z
M 52.59375 71.296875 
L 52.59375 62.3125 
Q 48.875 64.0625 45.09375 64.984375 
Q 41.3125 65.921875 37.59375 65.921875 
Q 27.828125 65.921875 22.671875 59.328125 
Q 17.53125 52.734375 16.796875 39.40625 
Q 19.671875 43.65625 24.015625 45.921875 
Q 28.375 48.1875 33.59375 48.1875 
Q 44.578125 48.1875 50.953125 41.515625 
Q 57.328125 34.859375 57.328125 23.390625 
Q 57.328125 12.15625 50.6875 5.359375 
Q 44.046875 -1.421875 33.015625 -1.421875 
Q 20.359375 -1.421875 13.671875 8.265625 
Q 6.984375 17.96875 6.984375 36.375 
Q 6.984375 53.65625 15.1875 63.9375 
Q 23.390625 74.21875 37.203125 74.21875 
Q 40.921875 74.21875 44.703125 73.484375 
Q 48.484375 72.75 52.59375 71.296875 
z
" id="DejaVuSans-54"/>
       </defs>
       <use xlink:href="#DejaVuSans-48"/>
       <use x="63.623047" xlink:href="#DejaVuSans-46"/>
       <use x="95.410156" xlink:href="#DejaVuSans-57"/>
       <use x="159.033203" xlink:href="#DejaVuSans-54"/>
      </g>
     </g>
    </g>
    <g id="ytick_5">
     <g id="line2d_9">
      <g>
       <use style="stroke:#000000;" x="92.45875" xlink:href="#m049dabf07f" y="135.758437"/>
      </g>
     </g>
     <g id="text_10">
      <!-- 0.98 -->
      <g transform="translate(34.4275 143.356875)scale(0.2 -0.2)">
       <defs>
        <path d="M 31.78125 34.625 
Q 24.75 34.625 20.71875 30.859375 
Q 16.703125 27.09375 16.703125 20.515625 
Q 16.703125 13.921875 20.71875 10.15625 
Q 24.75 6.390625 31.78125 6.390625 
Q 38.8125 6.390625 42.859375 10.171875 
Q 46.921875 13.96875 46.921875 20.515625 
Q 46.921875 27.09375 42.890625 30.859375 
Q 38.875 34.625 31.78125 34.625 
z
M 21.921875 38.8125 
Q 15.578125 40.375 12.03125 44.71875 
Q 8.5 49.078125 8.5 55.328125 
Q 8.5 64.0625 14.71875 69.140625 
Q 20.953125 74.21875 31.78125 74.21875 
Q 42.671875 74.21875 48.875 69.140625 
Q 55.078125 64.0625 55.078125 55.328125 
Q 55.078125 49.078125 51.53125 44.71875 
Q 48 40.375 41.703125 38.8125 
Q 48.828125 37.15625 52.796875 32.3125 
Q 56.78125 27.484375 56.78125 20.515625 
Q 56.78125 9.90625 50.3125 4.234375 
Q 43.84375 -1.421875 31.78125 -1.421875 
Q 19.734375 -1.421875 13.25 4.234375 
Q 6.78125 9.90625 6.78125 20.515625 
Q 6.78125 27.484375 10.78125 32.3125 
Q 14.796875 37.15625 21.921875 38.8125 
z
M 18.3125 54.390625 
Q 18.3125 48.734375 21.84375 45.5625 
Q 25.390625 42.390625 31.78125 42.390625 
Q 38.140625 42.390625 41.71875 45.5625 
Q 45.3125 48.734375 45.3125 54.390625 
Q 45.3125 60.0625 41.71875 63.234375 
Q 38.140625 66.40625 31.78125 66.40625 
Q 25.390625 66.40625 21.84375 63.234375 
Q 18.3125 60.0625 18.3125 54.390625 
z
" id="DejaVuSans-56"/>
       </defs>
       <use xlink:href="#DejaVuSans-48"/>
       <use x="63.623047" xlink:href="#DejaVuSans-46"/>
       <use x="95.410156" xlink:href="#DejaVuSans-57"/>
       <use x="159.033203" xlink:href="#DejaVuSans-56"/>
      </g>
     </g>
    </g>
    <g id="ytick_6">
     <g id="line2d_10">
      <g>
       <use style="stroke:#000000;" x="92.45875" xlink:href="#m049dabf07f" y="14.798437"/>
      </g>
     </g>
     <g id="text_11">
      <!-- 1.00 -->
      <g transform="translate(34.4275 22.396875)scale(0.2 -0.2)">
       <use xlink:href="#DejaVuSans-49"/>
       <use x="63.623047" xlink:href="#DejaVuSans-46"/>
       <use x="95.410156" xlink:href="#DejaVuSans-48"/>
       <use x="159.033203" xlink:href="#DejaVuSans-48"/>
      </g>
     </g>
    </g>
    <g id="text_12">
     <!-- RMSF -->
     <g transform="translate(25.43625 380.650312)rotate(-90)scale(0.24 -0.24)">
      <defs>
       <path d="M 44.390625 34.1875 
Q 47.5625 33.109375 50.5625 29.59375 
Q 53.5625 26.078125 56.59375 19.921875 
L 66.609375 0 
L 56 0 
L 46.6875 18.703125 
Q 43.0625 26.03125 39.671875 28.421875 
Q 36.28125 30.8125 30.421875 30.8125 
L 19.671875 30.8125 
L 19.671875 0 
L 9.8125 0 
L 9.8125 72.90625 
L 32.078125 72.90625 
Q 44.578125 72.90625 50.734375 67.671875 
Q 56.890625 62.453125 56.890625 51.90625 
Q 56.890625 45.015625 53.6875 40.46875 
Q 50.484375 35.9375 44.390625 34.1875 
z
M 19.671875 64.796875 
L 19.671875 38.921875 
L 32.078125 38.921875 
Q 39.203125 38.921875 42.84375 42.21875 
Q 46.484375 45.515625 46.484375 51.90625 
Q 46.484375 58.296875 42.84375 61.546875 
Q 39.203125 64.796875 32.078125 64.796875 
z
" id="DejaVuSans-82"/>
       <path d="M 9.8125 72.90625 
L 24.515625 72.90625 
L 43.109375 23.296875 
L 61.8125 72.90625 
L 76.515625 72.90625 
L 76.515625 0 
L 66.890625 0 
L 66.890625 64.015625 
L 48.09375 14.015625 
L 38.1875 14.015625 
L 19.390625 64.015625 
L 19.390625 0 
L 9.8125 0 
z
" id="DejaVuSans-77"/>
       <path d="M 53.515625 70.515625 
L 53.515625 60.890625 
Q 47.90625 63.578125 42.921875 64.890625 
Q 37.9375 66.21875 33.296875 66.21875 
Q 25.25 66.21875 20.875 63.09375 
Q 16.5 59.96875 16.5 54.203125 
Q 16.5 49.359375 19.40625 46.890625 
Q 22.3125 44.4375 30.421875 42.921875 
L 36.375 41.703125 
Q 47.40625 39.59375 52.65625 34.296875 
Q 57.90625 29 57.90625 20.125 
Q 57.90625 9.515625 50.796875 4.046875 
Q 43.703125 -1.421875 29.984375 -1.421875 
Q 24.8125 -1.421875 18.96875 -0.25 
Q 13.140625 0.921875 6.890625 3.21875 
L 6.890625 13.375 
Q 12.890625 10.015625 18.65625 8.296875 
Q 24.421875 6.59375 29.984375 6.59375 
Q 38.421875 6.59375 43.015625 9.90625 
Q 47.609375 13.234375 47.609375 19.390625 
Q 47.609375 24.75 44.3125 27.78125 
Q 41.015625 30.8125 33.5 32.328125 
L 27.484375 33.5 
Q 16.453125 35.6875 11.515625 40.375 
Q 6.59375 45.0625 6.59375 53.421875 
Q 6.59375 63.09375 13.40625 68.65625 
Q 20.21875 74.21875 32.171875 74.21875 
Q 37.3125 74.21875 42.625 73.28125 
Q 47.953125 72.359375 53.515625 70.515625 
z
" id="DejaVuSans-83"/>
       <path d="M 9.8125 72.90625 
L 51.703125 72.90625 
L 51.703125 64.59375 
L 19.671875 64.59375 
L 19.671875 43.109375 
L 48.578125 43.109375 
L 48.578125 34.8125 
L 19.671875 34.8125 
L 19.671875 0 
L 9.8125 0 
z
" id="DejaVuSans-70"/>
      </defs>
      <use xlink:href="#DejaVuSans-82"/>
      <use x="69.482422" xlink:href="#DejaVuSans-77"/>
      <use x="155.761719" xlink:href="#DejaVuSans-83"/>
      <use x="219.238281" xlink:href="#DejaVuSans-70"/>
     </g>
    </g>
   </g>
   <g id="line2d_11">
    <path clip-path="url(#pa01d19ab50)" d="M 107.676932 205.516069 
L 209.131477 570.984613 
L 310.586023 618.987589 
L 412.040568 633.829381 
" style="fill:none;stroke:#e41a1c;stroke-linecap:square;stroke-opacity:0.8;stroke-width:3;"/>
    <defs>
     <path d="M -5 5 
L 5 5 
L 5 -5 
L -5 -5 
z
" id="m27ba08a526" style="stroke:#000000;stroke-linejoin:miter;stroke-opacity:0.8;"/>
    </defs>
    <g clip-path="url(#pa01d19ab50)">
     <use style="fill:#e41a1c;fill-opacity:0.8;stroke:#000000;stroke-linejoin:miter;stroke-opacity:0.8;" x="107.676932" xlink:href="#m27ba08a526" y="205.516069"/>
     <use style="fill:#e41a1c;fill-opacity:0.8;stroke:#000000;stroke-linejoin:miter;stroke-opacity:0.8;" x="209.131477" xlink:href="#m27ba08a526" y="570.984613"/>
     <use style="fill:#e41a1c;fill-opacity:0.8;stroke:#000000;stroke-linejoin:miter;stroke-opacity:0.8;" x="310.586023" xlink:href="#m27ba08a526" y="618.987589"/>
     <use style="fill:#e41a1c;fill-opacity:0.8;stroke:#000000;stroke-linejoin:miter;stroke-opacity:0.8;" x="412.040568" xlink:href="#m27ba08a526" y="633.829381"/>
    </g>
   </g>
   <g id="line2d_12">
    <path clip-path="url(#pa01d19ab50)" d="M 107.676932 72.242341 
L 209.131477 304.025894 
L 310.586023 501.069733 
L 412.040568 550.693573 
" style="fill:none;stroke:#377eb8;stroke-linecap:square;stroke-opacity:0.8;stroke-width:3;"/>
    <defs>
     <path d="M -5 5 
L 5 5 
L 5 -5 
L -5 -5 
z
" id="mb3bbad4685" style="stroke:#000000;stroke-linejoin:miter;stroke-opacity:0.8;"/>
    </defs>
    <g clip-path="url(#pa01d19ab50)">
     <use style="fill:#377eb8;fill-opacity:0.8;stroke:#000000;stroke-linejoin:miter;stroke-opacity:0.8;" x="107.676932" xlink:href="#mb3bbad4685" y="72.242341"/>
     <use style="fill:#377eb8;fill-opacity:0.8;stroke:#000000;stroke-linejoin:miter;stroke-opacity:0.8;" x="209.131477" xlink:href="#mb3bbad4685" y="304.025894"/>
     <use style="fill:#377eb8;fill-opacity:0.8;stroke:#000000;stroke-linejoin:miter;stroke-opacity:0.8;" x="310.586023" xlink:href="#mb3bbad4685" y="501.069733"/>
     <use style="fill:#377eb8;fill-opacity:0.8;stroke:#000000;stroke-linejoin:miter;stroke-opacity:0.8;" x="412.040568" xlink:href="#mb3bbad4685" y="550.693573"/>
    </g>
   </g>
   <g id="line2d_13">
    <path clip-path="url(#pa01d19ab50)" d="M 107.676932 72.042757 
L 209.131477 261.683845 
L 310.586023 472.238917 
L 412.040568 537.496837 
" style="fill:none;stroke:#4daf4a;stroke-linecap:square;stroke-opacity:0.8;stroke-width:3;"/>
    <defs>
     <path d="M -5 5 
L 5 5 
L 5 -5 
L -5 -5 
z
" id="md344f5df11" style="stroke:#000000;stroke-linejoin:miter;stroke-opacity:0.8;"/>
    </defs>
    <g clip-path="url(#pa01d19ab50)">
     <use style="fill:#4daf4a;fill-opacity:0.8;stroke:#000000;stroke-linejoin:miter;stroke-opacity:0.8;" x="107.676932" xlink:href="#md344f5df11" y="72.042757"/>
     <use style="fill:#4daf4a;fill-opacity:0.8;stroke:#000000;stroke-linejoin:miter;stroke-opacity:0.8;" x="209.131477" xlink:href="#md344f5df11" y="261.683845"/>
     <use style="fill:#4daf4a;fill-opacity:0.8;stroke:#000000;stroke-linejoin:miter;stroke-opacity:0.8;" x="310.586023" xlink:href="#md344f5df11" y="472.238917"/>
     <use style="fill:#4daf4a;fill-opacity:0.8;stroke:#000000;stroke-linejoin:miter;stroke-opacity:0.8;" x="412.040568" xlink:href="#md344f5df11" y="537.496837"/>
    </g>
   </g>
   <g id="line2d_14">
    <path clip-path="url(#pa01d19ab50)" d="M 107.676932 71.788741 
L 209.131477 233.119141 
L 310.586023 404.749285 
L 412.040568 519.618949 
" style="fill:none;stroke:#984ea3;stroke-linecap:square;stroke-opacity:0.8;stroke-width:3;"/>
    <defs>
     <path d="M -5 5 
L 5 5 
L 5 -5 
L -5 -5 
z
" id="mf7d4223805" style="stroke:#000000;stroke-linejoin:miter;stroke-opacity:0.8;"/>
    </defs>
    <g clip-path="url(#pa01d19ab50)">
     <use style="fill:#984ea3;fill-opacity:0.8;stroke:#000000;stroke-linejoin:miter;stroke-opacity:0.8;" x="107.676932" xlink:href="#mf7d4223805" y="71.788741"/>
     <use style="fill:#984ea3;fill-opacity:0.8;stroke:#000000;stroke-linejoin:miter;stroke-opacity:0.8;" x="209.131477" xlink:href="#mf7d4223805" y="233.119141"/>
     <use style="fill:#984ea3;fill-opacity:0.8;stroke:#000000;stroke-linejoin:miter;stroke-opacity:0.8;" x="310.586023" xlink:href="#mf7d4223805" y="404.749285"/>
     <use style="fill:#984ea3;fill-opacity:0.8;stroke:#000000;stroke-linejoin:miter;stroke-opacity:0.8;" x="412.040568" xlink:href="#mf7d4223805" y="519.618949"/>
    </g>
   </g>
   <g id="line2d_15">
    <path clip-path="url(#pa01d19ab50)" d="M 107.676932 72.254437 
L 209.131477 214.225189 
L 310.586023 351.381734 
L 412.040568 480.077125 
" style="fill:none;stroke:#ff7f00;stroke-linecap:square;stroke-opacity:0.8;stroke-width:3;"/>
    <defs>
     <path d="M -5 5 
L 5 5 
L 5 -5 
L -5 -5 
z
" id="m6d6b1a6b83" style="stroke:#000000;stroke-linejoin:miter;stroke-opacity:0.8;"/>
    </defs>
    <g clip-path="url(#pa01d19ab50)">
     <use style="fill:#ff7f00;fill-opacity:0.8;stroke:#000000;stroke-linejoin:miter;stroke-opacity:0.8;" x="107.676932" xlink:href="#m6d6b1a6b83" y="72.254437"/>
     <use style="fill:#ff7f00;fill-opacity:0.8;stroke:#000000;stroke-linejoin:miter;stroke-opacity:0.8;" x="209.131477" xlink:href="#m6d6b1a6b83" y="214.225189"/>
     <use style="fill:#ff7f00;fill-opacity:0.8;stroke:#000000;stroke-linejoin:miter;stroke-opacity:0.8;" x="310.586023" xlink:href="#m6d6b1a6b83" y="351.381734"/>
     <use style="fill:#ff7f00;fill-opacity:0.8;stroke:#000000;stroke-linejoin:miter;stroke-opacity:0.8;" x="412.040568" xlink:href="#m6d6b1a6b83" y="480.077125"/>
    </g>
   </g>
   <g id="line2d_16">
    <path clip-path="url(#pa01d19ab50)" d="M 107.676932 205.516069 
L 209.131477 570.984613 
L 310.586023 618.987589 
L 412.040568 633.829381 
" style="fill:none;stroke:#e41a1c;stroke-linecap:square;stroke-opacity:0.8;stroke-width:3;"/>
    <g clip-path="url(#pa01d19ab50)">
     <use style="fill:#e41a1c;fill-opacity:0.8;stroke:#000000;stroke-linejoin:miter;stroke-opacity:0.8;" x="107.676932" xlink:href="#m27ba08a526" y="205.516069"/>
     <use style="fill:#e41a1c;fill-opacity:0.8;stroke:#000000;stroke-linejoin:miter;stroke-opacity:0.8;" x="209.131477" xlink:href="#m27ba08a526" y="570.984613"/>
     <use style="fill:#e41a1c;fill-opacity:0.8;stroke:#000000;stroke-linejoin:miter;stroke-opacity:0.8;" x="310.586023" xlink:href="#m27ba08a526" y="618.987589"/>
     <use style="fill:#e41a1c;fill-opacity:0.8;stroke:#000000;stroke-linejoin:miter;stroke-opacity:0.8;" x="412.040568" xlink:href="#m27ba08a526" y="633.829381"/>
    </g>
   </g>
   <g id="line2d_17">
    <path clip-path="url(#pa01d19ab50)" d="M 107.676932 72.242341 
L 209.131477 304.025894 
L 310.586023 501.069733 
L 412.040568 550.693573 
" style="fill:none;stroke:#377eb8;stroke-linecap:square;stroke-opacity:0.8;stroke-width:3;"/>
    <g clip-path="url(#pa01d19ab50)">
     <use style="fill:#377eb8;fill-opacity:0.8;stroke:#000000;stroke-linejoin:miter;stroke-opacity:0.8;" x="107.676932" xlink:href="#mb3bbad4685" y="72.242341"/>
     <use style="fill:#377eb8;fill-opacity:0.8;stroke:#000000;stroke-linejoin:miter;stroke-opacity:0.8;" x="209.131477" xlink:href="#mb3bbad4685" y="304.025894"/>
     <use style="fill:#377eb8;fill-opacity:0.8;stroke:#000000;stroke-linejoin:miter;stroke-opacity:0.8;" x="310.586023" xlink:href="#mb3bbad4685" y="501.069733"/>
     <use style="fill:#377eb8;fill-opacity:0.8;stroke:#000000;stroke-linejoin:miter;stroke-opacity:0.8;" x="412.040568" xlink:href="#mb3bbad4685" y="550.693573"/>
    </g>
   </g>
   <g id="line2d_18">
    <path clip-path="url(#pa01d19ab50)" d="M 107.676932 72.042757 
L 209.131477 261.683845 
L 310.586023 472.238917 
L 412.040568 537.496837 
" style="fill:none;stroke:#4daf4a;stroke-linecap:square;stroke-opacity:0.8;stroke-width:3;"/>
    <g clip-path="url(#pa01d19ab50)">
     <use style="fill:#4daf4a;fill-opacity:0.8;stroke:#000000;stroke-linejoin:miter;stroke-opacity:0.8;" x="107.676932" xlink:href="#md344f5df11" y="72.042757"/>
     <use style="fill:#4daf4a;fill-opacity:0.8;stroke:#000000;stroke-linejoin:miter;stroke-opacity:0.8;" x="209.131477" xlink:href="#md344f5df11" y="261.683845"/>
     <use style="fill:#4daf4a;fill-opacity:0.8;stroke:#000000;stroke-linejoin:miter;stroke-opacity:0.8;" x="310.586023" xlink:href="#md344f5df11" y="472.238917"/>
     <use style="fill:#4daf4a;fill-opacity:0.8;stroke:#000000;stroke-linejoin:miter;stroke-opacity:0.8;" x="412.040568" xlink:href="#md344f5df11" y="537.496837"/>
    </g>
   </g>
   <g id="line2d_19">
    <path clip-path="url(#pa01d19ab50)" d="M 107.676932 71.788741 
L 209.131477 233.119141 
L 310.586023 404.749285 
L 412.040568 519.618949 
" style="fill:none;stroke:#984ea3;stroke-linecap:square;stroke-opacity:0.8;stroke-width:3;"/>
    <g clip-path="url(#pa01d19ab50)">
     <use style="fill:#984ea3;fill-opacity:0.8;stroke:#000000;stroke-linejoin:miter;stroke-opacity:0.8;" x="107.676932" xlink:href="#mf7d4223805" y="71.788741"/>
     <use style="fill:#984ea3;fill-opacity:0.8;stroke:#000000;stroke-linejoin:miter;stroke-opacity:0.8;" x="209.131477" xlink:href="#mf7d4223805" y="233.119141"/>
     <use style="fill:#984ea3;fill-opacity:0.8;stroke:#000000;stroke-linejoin:miter;stroke-opacity:0.8;" x="310.586023" xlink:href="#mf7d4223805" y="404.749285"/>
     <use style="fill:#984ea3;fill-opacity:0.8;stroke:#000000;stroke-linejoin:miter;stroke-opacity:0.8;" x="412.040568" xlink:href="#mf7d4223805" y="519.618949"/>
    </g>
   </g>
   <g id="line2d_20">
    <path clip-path="url(#pa01d19ab50)" d="M 107.676932 72.254437 
L 209.131477 214.225189 
L 310.586023 351.381734 
L 412.040568 480.077125 
" style="fill:none;stroke:#ff7f00;stroke-linecap:square;stroke-opacity:0.8;stroke-width:3;"/>
    <g clip-path="url(#pa01d19ab50)">
     <use style="fill:#ff7f00;fill-opacity:0.8;stroke:#000000;stroke-linejoin:miter;stroke-opacity:0.8;" x="107.676932" xlink:href="#m6d6b1a6b83" y="72.254437"/>
     <use style="fill:#ff7f00;fill-opacity:0.8;stroke:#000000;stroke-linejoin:miter;stroke-opacity:0.8;" x="209.131477" xlink:href="#m6d6b1a6b83" y="214.225189"/>
     <use style="fill:#ff7f00;fill-opacity:0.8;stroke:#000000;stroke-linejoin:miter;stroke-opacity:0.8;" x="310.586023" xlink:href="#m6d6b1a6b83" y="351.381734"/>
     <use style="fill:#ff7f00;fill-opacity:0.8;stroke:#000000;stroke-linejoin:miter;stroke-opacity:0.8;" x="412.040568" xlink:href="#m6d6b1a6b83" y="480.077125"/>
    </g>
   </g>
   <g id="patch_3">
    <path d="M 92.45875 680.078437 
L 92.45875 14.798437 
" style="fill:none;stroke:#000000;stroke-linecap:square;stroke-linejoin:miter;stroke-width:0.8;"/>
   </g>
   <g id="patch_4">
    <path d="M 427.25875 680.078437 
L 427.25875 14.798437 
" style="fill:none;stroke:#000000;stroke-linecap:square;stroke-linejoin:miter;stroke-width:0.8;"/>
   </g>
   <g id="patch_5">
    <path d="M 92.45875 680.078437 
L 427.25875 680.078437 
" style="fill:none;stroke:#000000;stroke-linecap:square;stroke-linejoin:miter;stroke-width:0.8;"/>
   </g>
   <g id="patch_6">
    <path d="M 92.45875 14.798437 
L 427.25875 14.798437 
" style="fill:none;stroke:#000000;stroke-linecap:square;stroke-linejoin:miter;stroke-width:0.8;"/>
   </g>
   <g id="legend_1">
    <g id="patch_7">
     <path d="M 218.45875 324.360937 
L 413.25875 324.360937 
Q 417.25875 324.360937 417.25875 320.360937 
L 417.25875 28.798437 
Q 417.25875 24.798437 413.25875 24.798437 
L 218.45875 24.798437 
Q 214.45875 24.798437 214.45875 28.798437 
L 214.45875 320.360937 
Q 214.45875 324.360937 218.45875 324.360937 
z
" style="fill:#ffffff;opacity:0.8;stroke:#cccccc;stroke-linejoin:miter;"/>
    </g>
    <g id="line2d_21">
     <path d="M 222.45875 40.995312 
L 262.45875 40.995312 
" style="fill:none;stroke:#e41a1c;stroke-linecap:square;stroke-opacity:0.8;stroke-width:3;"/>
    </g>
    <g id="line2d_22">
     <g>
      <use style="fill:#e41a1c;fill-opacity:0.8;stroke:#000000;stroke-linejoin:miter;stroke-opacity:0.8;" x="242.45875" xlink:href="#m27ba08a526" y="40.995312"/>
     </g>
    </g>
    <g id="text_13">
     <!-- $Baseline$ -->
     <g transform="translate(278.45875 47.995312)scale(0.2 -0.2)">
      <defs>
       <path d="M 4.984375 0 
Q 4 0 4 1.3125 
Q 4.046875 1.5625 4.1875 2.140625 
Q 4.34375 2.734375 4.578125 3.125 
Q 4.828125 3.515625 5.328125 3.515625 
Q 8.15625 3.515625 10.25 3.65625 
Q 12.359375 3.8125 13.8125 4.203125 
Q 14.984375 4.640625 15.71875 6.890625 
L 29.390625 61.8125 
Q 29.59375 62.796875 29.59375 63.1875 
Q 29.59375 64.265625 28.421875 64.40625 
Q 26.515625 64.796875 21.1875 64.796875 
Q 20.21875 64.796875 20.21875 66.109375 
Q 20.265625 66.359375 20.40625 66.96875 
Q 20.5625 67.578125 20.828125 67.9375 
Q 21.09375 68.3125 21.484375 68.3125 
L 57.328125 68.3125 
Q 60.59375 68.3125 63.796875 67.5 
Q 67 66.703125 69.703125 64.9375 
Q 72.40625 63.1875 74 60.5625 
Q 75.59375 57.953125 75.59375 54.5 
Q 75.59375 50.734375 73.65625 47.5 
Q 71.734375 44.28125 68.671875 41.890625 
Q 65.625 39.5 62.078125 37.953125 
Q 58.546875 36.421875 54.6875 35.6875 
Q 57.421875 35.6875 60.21875 34.609375 
Q 63.03125 33.546875 65.234375 31.6875 
Q 67.4375 29.828125 68.78125 27.234375 
Q 70.125 24.65625 70.125 21.6875 
Q 70.125 15.671875 65.921875 10.6875 
Q 61.71875 5.71875 55.34375 2.859375 
Q 48.96875 0 43.015625 0 
z
M 23.390625 4.296875 
Q 23.390625 3.515625 26.8125 3.515625 
L 41.109375 3.515625 
Q 46 3.515625 50.484375 6.21875 
Q 54.984375 8.9375 57.6875 13.421875 
Q 60.40625 17.921875 60.40625 22.796875 
Q 60.40625 25.78125 59.15625 28.4375 
Q 57.90625 31.109375 55.5625 32.640625 
Q 53.21875 34.1875 50.203125 34.1875 
L 30.71875 34.1875 
L 23.78125 6.5 
Q 23.390625 5.125 23.390625 4.296875 
z
M 31.390625 36.8125 
L 46.578125 36.8125 
Q 51.375 36.8125 55.890625 39.25 
Q 60.40625 41.703125 63.25 45.890625 
Q 66.109375 50.09375 66.109375 54.78125 
Q 66.109375 59.125 63.390625 61.953125 
Q 60.6875 64.796875 56.390625 64.796875 
L 42.671875 64.796875 
Q 39.984375 64.796875 39.0625 64.296875 
Q 38.140625 63.8125 37.5 61.375 
z
" id="Cmmi10-66"/>
       <path d="M 17.390625 -1.125 
Q 11.078125 -1.125 7.4375 3.640625 
Q 3.8125 8.40625 3.8125 14.890625 
Q 3.8125 21.296875 7.125 28.171875 
Q 10.453125 35.0625 16.09375 39.625 
Q 21.734375 44.1875 28.21875 44.1875 
Q 31.203125 44.1875 33.546875 42.578125 
Q 35.890625 40.96875 37.203125 38.1875 
Q 38.328125 42.1875 41.609375 42.1875 
Q 42.875 42.1875 43.71875 41.421875 
Q 44.578125 40.671875 44.578125 39.40625 
Q 44.578125 39.109375 44.546875 38.953125 
Q 44.53125 38.8125 44.484375 38.625 
L 37.5 10.6875 
Q 36.8125 7.71875 36.8125 5.8125 
Q 36.8125 1.515625 39.703125 1.515625 
Q 42.828125 1.515625 44.453125 5.484375 
Q 46.09375 9.46875 47.21875 14.703125 
Q 47.40625 15.28125 48 15.28125 
L 49.21875 15.28125 
Q 49.609375 15.28125 49.84375 14.9375 
Q 50.09375 14.59375 50.09375 14.3125 
Q 48.34375 7.328125 46.265625 3.09375 
Q 44.1875 -1.125 39.5 -1.125 
Q 36.140625 -1.125 33.546875 0.84375 
Q 30.953125 2.828125 30.328125 6.109375 
Q 23.875 -1.125 17.390625 -1.125 
z
M 17.484375 1.515625 
Q 21.09375 1.515625 24.484375 4.21875 
Q 27.875 6.9375 30.328125 10.59375 
Q 30.421875 10.6875 30.421875 10.890625 
L 35.796875 32.625 
L 35.890625 32.90625 
Q 35.296875 36.46875 33.3125 39.03125 
Q 31.34375 41.609375 27.984375 41.609375 
Q 24.609375 41.609375 21.703125 38.84375 
Q 18.796875 36.078125 16.796875 32.328125 
Q 14.84375 28.328125 13.0625 21.34375 
Q 11.28125 14.359375 11.28125 10.5 
Q 11.28125 7.03125 12.765625 4.265625 
Q 14.265625 1.515625 17.484375 1.515625 
z
" id="Cmmi10-97"/>
       <path d="M 8.6875 6.109375 
Q 11.375 1.515625 19.484375 1.515625 
Q 23 1.515625 26.171875 2.703125 
Q 29.34375 3.90625 31.421875 6.296875 
Q 33.5 8.6875 33.5 12.109375 
Q 33.5 14.703125 31.640625 16.359375 
Q 29.78125 18.015625 27.09375 18.609375 
L 21.6875 19.671875 
Q 17.96875 20.609375 15.578125 23.140625 
Q 13.1875 25.6875 13.1875 29.296875 
Q 13.1875 33.734375 15.59375 37.15625 
Q 18.015625 40.578125 21.96875 42.375 
Q 25.921875 44.1875 30.171875 44.1875 
Q 34.71875 44.1875 38.296875 42.015625 
Q 41.890625 39.84375 41.890625 35.59375 
Q 41.890625 33.296875 40.59375 31.53125 
Q 39.3125 29.78125 37.015625 29.78125 
Q 35.6875 29.78125 34.734375 30.640625 
Q 33.796875 31.5 33.796875 32.8125 
Q 33.796875 33.984375 34.453125 35.078125 
Q 35.109375 36.1875 36.203125 36.84375 
Q 37.3125 37.5 38.484375 37.5 
Q 37.59375 39.65625 35.171875 40.625 
Q 32.765625 41.609375 29.984375 41.609375 
Q 27.4375 41.609375 24.890625 40.578125 
Q 22.359375 39.546875 20.8125 37.5625 
Q 19.28125 35.59375 19.28125 32.90625 
Q 19.28125 31.109375 20.546875 29.734375 
Q 21.828125 28.375 23.6875 27.78125 
L 29.5 26.609375 
Q 32.28125 26.03125 34.59375 24.53125 
Q 36.921875 23.046875 38.25 20.765625 
Q 39.59375 18.5 39.59375 15.578125 
Q 39.59375 11.859375 37.515625 8.25 
Q 35.453125 4.640625 32.421875 2.484375 
Q 27.09375 -1.125 19.390625 -1.125 
Q 14.0625 -1.125 9.609375 1.3125 
Q 5.171875 3.765625 5.171875 8.59375 
Q 5.171875 11.328125 6.75 13.34375 
Q 8.34375 15.375 11.078125 15.375 
Q 12.703125 15.375 13.796875 14.390625 
Q 14.890625 13.421875 14.890625 11.8125 
Q 14.890625 9.515625 13.171875 7.8125 
Q 11.46875 6.109375 9.1875 6.109375 
z
" id="Cmmi10-115"/>
       <path d="M 4.390625 8.109375 
Q 4.390625 8.40625 4.46875 8.984375 
Q 4.546875 9.578125 4.609375 10.125 
Q 4.6875 10.6875 4.6875 10.984375 
L 17.09375 60.5 
Q 17.484375 62.203125 17.578125 63.1875 
Q 17.578125 64.796875 11.078125 64.796875 
Q 10.109375 64.796875 10.109375 66.109375 
Q 10.15625 66.359375 10.328125 66.984375 
Q 10.5 67.625 10.765625 67.96875 
Q 11.03125 68.3125 11.53125 68.3125 
L 25 69.390625 
Q 26.21875 69.390625 26.21875 68.109375 
L 11.8125 10.59375 
Q 11.078125 8.984375 11.078125 5.8125 
Q 11.078125 1.515625 14.015625 1.515625 
Q 17.09375 1.515625 18.625 5.34375 
Q 20.171875 9.1875 21.390625 14.703125 
Q 21.578125 15.28125 22.21875 15.28125 
L 23.390625 15.28125 
Q 23.78125 15.28125 24.046875 14.96875 
Q 24.3125 14.65625 24.3125 14.3125 
Q 23.140625 9.46875 22.1875 6.65625 
Q 21.234375 3.859375 19.140625 1.359375 
Q 17.046875 -1.125 13.8125 -1.125 
Q 9.8125 -1.125 7.09375 1.453125 
Q 4.390625 4.046875 4.390625 8.109375 
z
" id="Cmmi10-108"/>
       <path d="M 7.8125 7.171875 
Q 7.8125 9.03125 8.59375 11.078125 
L 16.703125 32.625 
Q 18.015625 36.28125 18.015625 38.625 
Q 18.015625 41.609375 15.828125 41.609375 
Q 11.859375 41.609375 9.296875 37.53125 
Q 6.734375 33.453125 5.515625 28.421875 
Q 5.328125 27.78125 4.6875 27.78125 
L 3.515625 27.78125 
Q 2.6875 27.78125 2.6875 28.71875 
L 2.6875 29 
Q 4.296875 34.96875 7.609375 39.578125 
Q 10.9375 44.1875 16.015625 44.1875 
Q 19.578125 44.1875 22.046875 41.84375 
Q 24.515625 39.5 24.515625 35.890625 
Q 24.515625 34.03125 23.6875 31.984375 
L 15.578125 10.5 
Q 14.203125 7.171875 14.203125 4.5 
Q 14.203125 1.515625 16.5 1.515625 
Q 20.40625 1.515625 23.015625 5.6875 
Q 25.640625 9.859375 26.703125 14.703125 
Q 26.90625 15.28125 27.484375 15.28125 
L 28.71875 15.28125 
Q 29.109375 15.28125 29.34375 15.015625 
Q 29.59375 14.75 29.59375 14.40625 
Q 29.59375 14.3125 29.5 14.109375 
Q 28.125 8.453125 24.734375 3.65625 
Q 21.34375 -1.125 16.3125 -1.125 
Q 12.796875 -1.125 10.296875 1.296875 
Q 7.8125 3.71875 7.8125 7.171875 
z
M 19.09375 60.59375 
Q 19.09375 62.703125 20.84375 64.40625 
Q 22.609375 66.109375 24.703125 66.109375 
Q 26.421875 66.109375 27.515625 65.0625 
Q 28.609375 64.015625 28.609375 62.40625 
Q 28.609375 60.15625 26.828125 58.46875 
Q 25.046875 56.78125 22.90625 56.78125 
Q 21.296875 56.78125 20.1875 57.875 
Q 19.09375 58.984375 19.09375 60.59375 
z
" id="Cmmi10-105"/>
       <path d="M 7.71875 1.703125 
Q 7.71875 2.296875 7.8125 2.59375 
L 15.28125 32.421875 
Q 16.015625 35.203125 16.015625 37.3125 
Q 16.015625 41.609375 13.09375 41.609375 
Q 9.96875 41.609375 8.453125 37.859375 
Q 6.9375 34.125 5.515625 28.421875 
Q 5.515625 28.125 5.21875 27.953125 
Q 4.9375 27.78125 4.6875 27.78125 
L 3.515625 27.78125 
Q 3.171875 27.78125 2.921875 28.140625 
Q 2.6875 28.515625 2.6875 28.8125 
Q 3.765625 33.15625 4.765625 36.171875 
Q 5.765625 39.203125 7.890625 41.6875 
Q 10.015625 44.1875 13.1875 44.1875 
Q 16.9375 44.1875 19.8125 41.8125 
Q 22.703125 39.453125 22.703125 35.796875 
Q 25.6875 39.703125 29.6875 41.9375 
Q 33.6875 44.1875 38.1875 44.1875 
Q 41.75 44.1875 44.328125 42.96875 
Q 46.921875 41.75 48.359375 39.28125 
Q 49.8125 36.8125 49.8125 33.40625 
Q 49.8125 29.296875 47.96875 23.484375 
Q 46.140625 17.671875 43.40625 10.5 
Q 42 7.234375 42 4.5 
Q 42 1.515625 44.28125 1.515625 
Q 48.1875 1.515625 50.796875 5.703125 
Q 53.421875 9.90625 54.5 14.703125 
Q 54.6875 15.28125 55.328125 15.28125 
L 56.5 15.28125 
Q 56.890625 15.28125 57.15625 15.03125 
Q 57.421875 14.796875 57.421875 14.40625 
Q 57.421875 14.3125 57.328125 14.109375 
Q 55.953125 8.453125 52.5625 3.65625 
Q 49.171875 -1.125 44.09375 -1.125 
Q 40.578125 -1.125 38.078125 1.296875 
Q 35.59375 3.71875 35.59375 7.171875 
Q 35.59375 9.03125 36.375 11.078125 
Q 37.640625 14.359375 39.28125 18.890625 
Q 40.921875 23.4375 41.96875 27.578125 
Q 43.015625 31.734375 43.015625 34.90625 
Q 43.015625 37.703125 41.859375 39.65625 
Q 40.71875 41.609375 37.984375 41.609375 
Q 34.328125 41.609375 31.25 39.984375 
Q 28.171875 38.375 25.875 35.71875 
Q 23.578125 33.0625 21.6875 29.390625 
L 14.890625 2.203125 
Q 14.546875 0.828125 13.34375 -0.140625 
Q 12.15625 -1.125 10.6875 -1.125 
Q 9.46875 -1.125 8.59375 -0.34375 
Q 7.71875 0.4375 7.71875 1.703125 
z
" id="Cmmi10-110"/>
      </defs>
      <use transform="translate(0 0.609375)" xlink:href="#Cmmi10-66"/>
      <use transform="translate(75.78125 0.609375)" xlink:href="#Cmmi10-97"/>
      <use transform="translate(128.564453 0.609375)" xlink:href="#Cmmi10-115"/>
      <use transform="translate(175.341797 0.609375)" xlink:href="#Cmmi10-101"/>
      <use transform="translate(221.826172 0.609375)" xlink:href="#Cmmi10-108"/>
      <use transform="translate(251.611328 0.609375)" xlink:href="#Cmmi10-105"/>
      <use transform="translate(286.035156 0.609375)" xlink:href="#Cmmi10-110"/>
      <use transform="translate(346.044922 0.609375)" xlink:href="#Cmmi10-101"/>
     </g>
    </g>
    <g id="line2d_23">
     <path d="M 222.45875 70.351562 
L 262.45875 70.351562 
" style="fill:none;stroke:#377eb8;stroke-linecap:square;stroke-opacity:0.8;stroke-width:3;"/>
    </g>
    <g id="line2d_24">
     <g>
      <use style="fill:#377eb8;fill-opacity:0.8;stroke:#000000;stroke-linejoin:miter;stroke-opacity:0.8;" x="242.45875" xlink:href="#mb3bbad4685" y="70.351562"/>
     </g>
    </g>
    <g id="text_14">
     <!-- $N_m=4,K=5$ -->
     <g transform="translate(278.45875 77.351562)scale(0.2 -0.2)">
      <defs>
       <path d="M 7.71875 1.703125 
Q 7.71875 2.296875 7.8125 2.59375 
L 15.28125 32.421875 
Q 16.015625 35.203125 16.015625 37.3125 
Q 16.015625 41.609375 13.09375 41.609375 
Q 9.96875 41.609375 8.453125 37.859375 
Q 6.9375 34.125 5.515625 28.421875 
Q 5.515625 28.125 5.21875 27.953125 
Q 4.9375 27.78125 4.6875 27.78125 
L 3.515625 27.78125 
Q 3.171875 27.78125 2.921875 28.140625 
Q 2.6875 28.515625 2.6875 28.8125 
Q 3.765625 33.15625 4.765625 36.171875 
Q 5.765625 39.203125 7.890625 41.6875 
Q 10.015625 44.1875 13.1875 44.1875 
Q 16.9375 44.1875 19.8125 41.8125 
Q 22.703125 39.453125 22.703125 35.796875 
Q 25.6875 39.703125 29.6875 41.9375 
Q 33.6875 44.1875 38.1875 44.1875 
Q 42.921875 44.1875 46.359375 41.765625 
Q 49.8125 39.359375 49.8125 34.90625 
Q 52.875 39.265625 57 41.71875 
Q 61.140625 44.1875 66.015625 44.1875 
Q 71.1875 44.1875 74.328125 41.375 
Q 77.484375 38.578125 77.484375 33.40625 
Q 77.484375 29.296875 75.65625 23.484375 
Q 73.828125 17.671875 71.09375 10.5 
Q 69.671875 7.03125 69.671875 4.5 
Q 69.671875 1.515625 72.015625 1.515625 
Q 75.921875 1.515625 78.515625 5.703125 
Q 81.109375 9.90625 82.171875 14.703125 
Q 82.46875 15.28125 83.015625 15.28125 
L 84.1875 15.28125 
Q 84.578125 15.28125 84.84375 15.015625 
Q 85.109375 14.75 85.109375 14.40625 
Q 85.109375 14.3125 85.015625 14.109375 
Q 83.640625 8.453125 80.25 3.65625 
Q 76.859375 -1.125 71.78125 -1.125 
Q 68.265625 -1.125 65.765625 1.296875 
Q 63.28125 3.71875 63.28125 7.171875 
Q 63.28125 8.9375 64.109375 11.078125 
Q 66.9375 18.609375 68.8125 24.515625 
Q 70.703125 30.421875 70.703125 34.90625 
Q 70.703125 37.703125 69.578125 39.65625 
Q 68.453125 41.609375 65.828125 41.609375 
Q 60.359375 41.609375 56.34375 38.25 
Q 52.34375 34.90625 49.421875 29.390625 
Q 49.21875 28.421875 49.125 27.875 
L 42.671875 2.203125 
Q 42.328125 0.828125 41.125 -0.140625 
Q 39.9375 -1.125 38.484375 -1.125 
Q 37.3125 -1.125 36.40625 -0.34375 
Q 35.5 0.4375 35.5 1.703125 
Q 35.5 2.296875 35.59375 2.59375 
L 42 28.078125 
Q 43.015625 32.171875 43.015625 34.90625 
Q 43.015625 37.703125 41.859375 39.65625 
Q 40.71875 41.609375 37.984375 41.609375 
Q 34.328125 41.609375 31.25 39.984375 
Q 28.171875 38.375 25.875 35.71875 
Q 23.578125 33.0625 21.6875 29.390625 
L 14.890625 2.203125 
Q 14.546875 0.828125 13.34375 -0.140625 
Q 12.15625 -1.125 10.6875 -1.125 
Q 9.46875 -1.125 8.59375 -0.34375 
Q 7.71875 0.4375 7.71875 1.703125 
z
" id="Cmmi10-109"/>
       <path d="M 7.515625 13.28125 
Q 6.6875 13.28125 6.140625 13.90625 
Q 5.609375 14.546875 5.609375 15.28125 
Q 5.609375 16.109375 6.140625 16.6875 
Q 6.6875 17.28125 7.515625 17.28125 
L 70.3125 17.28125 
Q 71.046875 17.28125 71.578125 16.6875 
Q 72.125 16.109375 72.125 15.28125 
Q 72.125 14.546875 71.578125 13.90625 
Q 71.046875 13.28125 70.3125 13.28125 
z
M 7.515625 32.71875 
Q 6.6875 32.71875 6.140625 33.296875 
Q 5.609375 33.890625 5.609375 34.71875 
Q 5.609375 35.453125 6.140625 36.078125 
Q 6.6875 36.71875 7.515625 36.71875 
L 70.3125 36.71875 
Q 71.046875 36.71875 71.578125 36.078125 
Q 72.125 35.453125 72.125 34.71875 
Q 72.125 33.890625 71.578125 33.296875 
Q 71.046875 32.71875 70.3125 32.71875 
z
" id="Cmr10-61"/>
       <path d="M 2.78125 16.5 
L 2.78125 20.015625 
L 33.6875 66.109375 
Q 34.03125 66.609375 34.71875 66.609375 
L 36.1875 66.609375 
Q 37.3125 66.609375 37.3125 65.484375 
L 37.3125 20.015625 
L 47.125 20.015625 
L 47.125 16.5 
L 37.3125 16.5 
L 37.3125 6.6875 
Q 37.3125 4.640625 40.234375 4.078125 
Q 43.171875 3.515625 47.015625 3.515625 
L 47.015625 0 
L 19.484375 0 
L 19.484375 3.515625 
Q 23.34375 3.515625 26.265625 4.078125 
Q 29.203125 4.640625 29.203125 6.6875 
L 29.203125 16.5 
z
M 6.109375 20.015625 
L 29.78125 20.015625 
L 29.78125 55.421875 
z
" id="Cmr10-52"/>
       <path d="M 9.90625 -18.015625 
Q 9.90625 -17.578125 10.296875 -17.1875 
Q 13.921875 -13.71875 15.921875 -9.171875 
Q 17.921875 -4.640625 17.921875 0.390625 
L 17.921875 1.609375 
Q 16.3125 0 13.921875 0 
Q 11.625 0 10.015625 1.609375 
Q 8.40625 3.21875 8.40625 5.515625 
Q 8.40625 7.859375 10.015625 9.421875 
Q 11.625 10.984375 13.921875 10.984375 
Q 17.484375 10.984375 19 7.6875 
Q 20.515625 4.390625 20.515625 0.390625 
Q 20.515625 -5.171875 18.28125 -10.171875 
Q 16.0625 -15.1875 12.015625 -19.1875 
Q 11.625 -19.390625 11.375 -19.390625 
Q 10.890625 -19.390625 10.390625 -18.9375 
Q 9.90625 -18.5 9.90625 -18.015625 
z
" id="Cmmi10-59"/>
       <path d="M 4.6875 0 
Q 3.71875 0 3.71875 1.3125 
Q 3.765625 1.5625 3.90625 2.171875 
Q 4.046875 2.78125 4.3125 3.140625 
Q 4.59375 3.515625 4.984375 3.515625 
Q 11.078125 3.515625 13.484375 4.203125 
Q 14.796875 4.640625 15.375 6.890625 
L 29.109375 61.8125 
Q 29.296875 62.796875 29.296875 63.1875 
Q 29.296875 64.265625 28.078125 64.40625 
Q 26.21875 64.796875 20.90625 64.796875 
Q 19.921875 64.796875 19.921875 66.109375 
Q 20.265625 67.390625 20.453125 67.84375 
Q 20.65625 68.3125 21.578125 68.3125 
L 48.484375 68.3125 
Q 49.515625 68.3125 49.515625 67 
Q 49.46875 66.75 49.3125 66.15625 
Q 49.171875 65.578125 48.921875 65.1875 
Q 48.6875 64.796875 48.1875 64.796875 
Q 42.09375 64.796875 39.703125 64.109375 
Q 38.375 63.625 37.796875 61.375 
L 29.6875 29 
L 68.890625 59.28125 
Q 69 59.46875 70.140625 60.609375 
Q 71.296875 61.765625 71.296875 62.890625 
Q 71.296875 64.796875 67.921875 64.796875 
Q 66.890625 64.796875 66.890625 66.109375 
Q 67.09375 66.890625 67.203125 67.328125 
Q 67.328125 67.78125 67.640625 68.046875 
Q 67.96875 68.3125 68.609375 68.3125 
L 87.984375 68.3125 
Q 88.53125 68.3125 88.765625 67.921875 
Q 89.015625 67.53125 89.015625 67 
Q 88.96875 66.75 88.796875 66.109375 
Q 88.625 65.484375 88.359375 65.140625 
Q 88.09375 64.796875 87.59375 64.796875 
Q 80.28125 64.796875 71.578125 58.015625 
Q 71.53125 57.953125 71.4375 57.921875 
Q 71.34375 57.90625 71.234375 57.875 
Q 71.140625 57.859375 71.09375 57.8125 
L 50.484375 41.796875 
L 65.484375 6.6875 
Q 66.84375 4.5 68.40625 4 
Q 69.96875 3.515625 73.1875 3.515625 
Q 74.21875 3.515625 74.21875 2.203125 
Q 73.921875 1.03125 73.625 0.515625 
Q 73.34375 0 72.515625 0 
L 49.3125 0 
Q 48.390625 0 48.390625 1.3125 
Q 48.53125 2.34375 48.71875 2.921875 
Q 48.921875 3.515625 49.703125 3.515625 
Q 52.25 3.515625 54.03125 4.03125 
Q 55.8125 4.546875 55.8125 6.390625 
Q 55.8125 7.078125 55.71875 7.421875 
L 43.3125 36.28125 
L 28.71875 25 
L 24.125 6.5 
Q 23.875 5.28125 23.875 5.078125 
Q 23.875 4.046875 25.09375 3.90625 
Q 27 3.515625 32.328125 3.515625 
Q 33.296875 3.515625 33.296875 2.203125 
Q 32.953125 0.78125 32.75 0.390625 
Q 32.5625 0 31.59375 0 
z
" id="Cmmi10-75"/>
       <path d="M 8.6875 11.375 
Q 9.71875 8.453125 11.84375 6.046875 
Q 13.96875 3.65625 16.875 2.3125 
Q 19.78125 0.984375 22.90625 0.984375 
Q 30.125 0.984375 32.859375 6.59375 
Q 35.59375 12.203125 35.59375 20.21875 
Q 35.59375 23.6875 35.46875 26.046875 
Q 35.359375 28.421875 34.8125 30.609375 
Q 33.890625 34.125 31.5625 36.765625 
Q 29.25 39.40625 25.875 39.40625 
Q 22.515625 39.40625 20.09375 38.375 
Q 17.671875 37.359375 16.15625 35.984375 
Q 14.65625 34.625 13.484375 33.109375 
Q 12.3125 31.59375 12.015625 31.5 
L 10.890625 31.5 
Q 10.640625 31.5 10.265625 31.8125 
Q 9.90625 32.125 9.90625 32.421875 
L 9.90625 65.828125 
Q 9.90625 66.0625 10.21875 66.328125 
Q 10.546875 66.609375 10.890625 66.609375 
L 11.1875 66.609375 
Q 17.921875 63.375 25.484375 63.375 
Q 32.90625 63.375 39.796875 66.609375 
L 40.09375 66.609375 
Q 40.4375 66.609375 40.71875 66.359375 
Q 41.015625 66.109375 41.015625 65.828125 
L 41.015625 64.890625 
Q 41.015625 64.40625 40.828125 64.40625 
Q 37.40625 59.859375 32.25 57.3125 
Q 27.09375 54.78125 21.578125 54.78125 
Q 17.578125 54.78125 13.375 55.90625 
L 13.375 37.015625 
Q 16.703125 39.703125 19.3125 40.84375 
Q 21.921875 42 25.984375 42 
Q 31.5 42 35.859375 38.8125 
Q 40.234375 35.640625 42.578125 30.53125 
Q 44.921875 25.4375 44.921875 20.125 
Q 44.921875 14.109375 41.96875 8.984375 
Q 39.015625 3.859375 33.9375 0.828125 
Q 28.859375 -2.203125 22.90625 -2.203125 
Q 17.96875 -2.203125 13.84375 0.328125 
Q 9.71875 2.875 7.34375 7.171875 
Q 4.984375 11.46875 4.984375 16.3125 
Q 4.984375 18.5625 6.4375 19.96875 
Q 7.90625 21.390625 10.109375 21.390625 
Q 12.3125 21.390625 13.796875 19.9375 
Q 15.28125 18.5 15.28125 16.3125 
Q 15.28125 14.15625 13.796875 12.671875 
Q 12.3125 11.1875 10.109375 11.1875 
Q 9.765625 11.1875 9.328125 11.25 
Q 8.890625 11.328125 8.6875 11.375 
z
" id="Cmr10-53"/>
      </defs>
      <use transform="translate(0 0.6875)" xlink:href="#Cmmi10-78"/>
      <use transform="translate(80.322266 -16.31875)scale(0.7)" xlink:href="#Cmmi10-109"/>
      <use transform="translate(165.713281 0.6875)" xlink:href="#Cmr10-61"/>
      <use transform="translate(260.957422 0.6875)" xlink:href="#Cmr10-52"/>
      <use transform="translate(310.957422 0.6875)" xlink:href="#Cmmi10-59"/>
      <use transform="translate(356.201563 0.6875)" xlink:href="#Cmmi10-75"/>
      <use transform="translate(458.672266 0.6875)" xlink:href="#Cmr10-61"/>
      <use transform="translate(553.916406 0.6875)" xlink:href="#Cmr10-53"/>
     </g>
    </g>
    <g id="line2d_25">
     <path d="M 222.45875 99.707812 
L 262.45875 99.707812 
" style="fill:none;stroke:#4daf4a;stroke-linecap:square;stroke-opacity:0.8;stroke-width:3;"/>
    </g>
    <g id="line2d_26">
     <g>
      <use style="fill:#4daf4a;fill-opacity:0.8;stroke:#000000;stroke-linejoin:miter;stroke-opacity:0.8;" x="242.45875" xlink:href="#md344f5df11" y="99.707812"/>
     </g>
    </g>
    <g id="text_15">
     <!-- $N_m=5,K=5$ -->
     <g transform="translate(278.45875 106.707812)scale(0.2 -0.2)">
      <use transform="translate(0 0.6875)" xlink:href="#Cmmi10-78"/>
      <use transform="translate(80.322266 -16.31875)scale(0.7)" xlink:href="#Cmmi10-109"/>
      <use transform="translate(165.713281 0.6875)" xlink:href="#Cmr10-61"/>
      <use transform="translate(260.957422 0.6875)" xlink:href="#Cmr10-53"/>
      <use transform="translate(310.957422 0.6875)" xlink:href="#Cmmi10-59"/>
      <use transform="translate(356.201563 0.6875)" xlink:href="#Cmmi10-75"/>
      <use transform="translate(458.672266 0.6875)" xlink:href="#Cmr10-61"/>
      <use transform="translate(553.916406 0.6875)" xlink:href="#Cmr10-53"/>
     </g>
    </g>
    <g id="line2d_27">
     <path d="M 222.45875 129.064062 
L 262.45875 129.064062 
" style="fill:none;stroke:#984ea3;stroke-linecap:square;stroke-opacity:0.8;stroke-width:3;"/>
    </g>
    <g id="line2d_28">
     <g>
      <use style="fill:#984ea3;fill-opacity:0.8;stroke:#000000;stroke-linejoin:miter;stroke-opacity:0.8;" x="242.45875" xlink:href="#mf7d4223805" y="129.064062"/>
     </g>
    </g>
    <g id="text_16">
     <!-- $N_m=4,K=15$ -->
     <g transform="translate(278.45875 136.064062)scale(0.2 -0.2)">
      <defs>
       <path d="M 9.28125 0 
L 9.28125 3.515625 
Q 21.78125 3.515625 21.78125 6.6875 
L 21.78125 59.1875 
Q 16.609375 56.6875 8.6875 56.6875 
L 8.6875 60.203125 
Q 20.953125 60.203125 27.203125 66.609375 
L 28.609375 66.609375 
Q 28.953125 66.609375 29.265625 66.328125 
Q 29.59375 66.0625 29.59375 65.71875 
L 29.59375 6.6875 
Q 29.59375 3.515625 42.09375 3.515625 
L 42.09375 0 
z
" id="Cmr10-49"/>
      </defs>
      <use transform="translate(0 0.6875)" xlink:href="#Cmmi10-78"/>
      <use transform="translate(80.322266 -16.31875)scale(0.7)" xlink:href="#Cmmi10-109"/>
      <use transform="translate(165.713281 0.6875)" xlink:href="#Cmr10-61"/>
      <use transform="translate(260.957422 0.6875)" xlink:href="#Cmr10-52"/>
      <use transform="translate(310.957422 0.6875)" xlink:href="#Cmmi10-59"/>
      <use transform="translate(356.201563 0.6875)" xlink:href="#Cmmi10-75"/>
      <use transform="translate(458.672266 0.6875)" xlink:href="#Cmr10-61"/>
      <use transform="translate(553.916406 0.6875)" xlink:href="#Cmr10-49"/>
      <use transform="translate(603.916406 0.6875)" xlink:href="#Cmr10-53"/>
     </g>
    </g>
    <g id="line2d_29">
     <path d="M 222.45875 158.420312 
L 262.45875 158.420312 
" style="fill:none;stroke:#ff7f00;stroke-linecap:square;stroke-opacity:0.8;stroke-width:3;"/>
    </g>
    <g id="line2d_30">
     <g>
      <use style="fill:#ff7f00;fill-opacity:0.8;stroke:#000000;stroke-linejoin:miter;stroke-opacity:0.8;" x="242.45875" xlink:href="#m6d6b1a6b83" y="158.420312"/>
     </g>
    </g>
    <g id="text_17">
     <!-- $N_m=5,K=15$ -->
     <g transform="translate(278.45875 165.420312)scale(0.2 -0.2)">
      <use transform="translate(0 0.6875)" xlink:href="#Cmmi10-78"/>
      <use transform="translate(80.322266 -16.31875)scale(0.7)" xlink:href="#Cmmi10-109"/>
      <use transform="translate(165.713281 0.6875)" xlink:href="#Cmr10-61"/>
      <use transform="translate(260.957422 0.6875)" xlink:href="#Cmr10-53"/>
      <use transform="translate(310.957422 0.6875)" xlink:href="#Cmmi10-59"/>
      <use transform="translate(356.201563 0.6875)" xlink:href="#Cmmi10-75"/>
      <use transform="translate(458.672266 0.6875)" xlink:href="#Cmr10-61"/>
      <use transform="translate(553.916406 0.6875)" xlink:href="#Cmr10-49"/>
      <use transform="translate(603.916406 0.6875)" xlink:href="#Cmr10-53"/>
     </g>
    </g>
    <g id="line2d_31">
     <path d="M 222.45875 187.776562 
L 262.45875 187.776562 
" style="fill:none;stroke:#e41a1c;stroke-linecap:square;stroke-opacity:0.8;stroke-width:3;"/>
    </g>
    <g id="line2d_32">
     <g>
      <use style="fill:#e41a1c;fill-opacity:0.8;stroke:#000000;stroke-linejoin:miter;stroke-opacity:0.8;" x="242.45875" xlink:href="#m27ba08a526" y="187.776562"/>
     </g>
    </g>
    <g id="text_18">
     <!-- $Baseline$ -->
     <g transform="translate(278.45875 194.776562)scale(0.2 -0.2)">
      <use transform="translate(0 0.609375)" xlink:href="#Cmmi10-66"/>
      <use transform="translate(75.78125 0.609375)" xlink:href="#Cmmi10-97"/>
      <use transform="translate(128.564453 0.609375)" xlink:href="#Cmmi10-115"/>
      <use transform="translate(175.341797 0.609375)" xlink:href="#Cmmi10-101"/>
      <use transform="translate(221.826172 0.609375)" xlink:href="#Cmmi10-108"/>
      <use transform="translate(251.611328 0.609375)" xlink:href="#Cmmi10-105"/>
      <use transform="translate(286.035156 0.609375)" xlink:href="#Cmmi10-110"/>
      <use transform="translate(346.044922 0.609375)" xlink:href="#Cmmi10-101"/>
     </g>
    </g>
    <g id="line2d_33">
     <path d="M 222.45875 217.132812 
L 262.45875 217.132812 
" style="fill:none;stroke:#377eb8;stroke-linecap:square;stroke-opacity:0.8;stroke-width:3;"/>
    </g>
    <g id="line2d_34">
     <g>
      <use style="fill:#377eb8;fill-opacity:0.8;stroke:#000000;stroke-linejoin:miter;stroke-opacity:0.8;" x="242.45875" xlink:href="#mb3bbad4685" y="217.132812"/>
     </g>
    </g>
    <g id="text_19">
     <!-- $N_m=4,K=5$ -->
     <g transform="translate(278.45875 224.132812)scale(0.2 -0.2)">
      <use transform="translate(0 0.6875)" xlink:href="#Cmmi10-78"/>
      <use transform="translate(80.322266 -16.31875)scale(0.7)" xlink:href="#Cmmi10-109"/>
      <use transform="translate(165.713281 0.6875)" xlink:href="#Cmr10-61"/>
      <use transform="translate(260.957422 0.6875)" xlink:href="#Cmr10-52"/>
      <use transform="translate(310.957422 0.6875)" xlink:href="#Cmmi10-59"/>
      <use transform="translate(356.201563 0.6875)" xlink:href="#Cmmi10-75"/>
      <use transform="translate(458.672266 0.6875)" xlink:href="#Cmr10-61"/>
      <use transform="translate(553.916406 0.6875)" xlink:href="#Cmr10-53"/>
     </g>
    </g>
    <g id="line2d_35">
     <path d="M 222.45875 246.489062 
L 262.45875 246.489062 
" style="fill:none;stroke:#4daf4a;stroke-linecap:square;stroke-opacity:0.8;stroke-width:3;"/>
    </g>
    <g id="line2d_36">
     <g>
      <use style="fill:#4daf4a;fill-opacity:0.8;stroke:#000000;stroke-linejoin:miter;stroke-opacity:0.8;" x="242.45875" xlink:href="#md344f5df11" y="246.489062"/>
     </g>
    </g>
    <g id="text_20">
     <!-- $N_m=5,K=5$ -->
     <g transform="translate(278.45875 253.489062)scale(0.2 -0.2)">
      <use transform="translate(0 0.6875)" xlink:href="#Cmmi10-78"/>
      <use transform="translate(80.322266 -16.31875)scale(0.7)" xlink:href="#Cmmi10-109"/>
      <use transform="translate(165.713281 0.6875)" xlink:href="#Cmr10-61"/>
      <use transform="translate(260.957422 0.6875)" xlink:href="#Cmr10-53"/>
      <use transform="translate(310.957422 0.6875)" xlink:href="#Cmmi10-59"/>
      <use transform="translate(356.201563 0.6875)" xlink:href="#Cmmi10-75"/>
      <use transform="translate(458.672266 0.6875)" xlink:href="#Cmr10-61"/>
      <use transform="translate(553.916406 0.6875)" xlink:href="#Cmr10-53"/>
     </g>
    </g>
    <g id="line2d_37">
     <path d="M 222.45875 275.845312 
L 262.45875 275.845312 
" style="fill:none;stroke:#984ea3;stroke-linecap:square;stroke-opacity:0.8;stroke-width:3;"/>
    </g>
    <g id="line2d_38">
     <g>
      <use style="fill:#984ea3;fill-opacity:0.8;stroke:#000000;stroke-linejoin:miter;stroke-opacity:0.8;" x="242.45875" xlink:href="#mf7d4223805" y="275.845312"/>
     </g>
    </g>
    <g id="text_21">
     <!-- $N_m=4,K=15$ -->
     <g transform="translate(278.45875 282.845312)scale(0.2 -0.2)">
      <use transform="translate(0 0.6875)" xlink:href="#Cmmi10-78"/>
      <use transform="translate(80.322266 -16.31875)scale(0.7)" xlink:href="#Cmmi10-109"/>
      <use transform="translate(165.713281 0.6875)" xlink:href="#Cmr10-61"/>
      <use transform="translate(260.957422 0.6875)" xlink:href="#Cmr10-52"/>
      <use transform="translate(310.957422 0.6875)" xlink:href="#Cmmi10-59"/>
      <use transform="translate(356.201563 0.6875)" xlink:href="#Cmmi10-75"/>
      <use transform="translate(458.672266 0.6875)" xlink:href="#Cmr10-61"/>
      <use transform="translate(553.916406 0.6875)" xlink:href="#Cmr10-49"/>
      <use transform="translate(603.916406 0.6875)" xlink:href="#Cmr10-53"/>
     </g>
    </g>
    <g id="line2d_39">
     <path d="M 222.45875 305.201562 
L 262.45875 305.201562 
" style="fill:none;stroke:#ff7f00;stroke-linecap:square;stroke-opacity:0.8;stroke-width:3;"/>
    </g>
    <g id="line2d_40">
     <g>
      <use style="fill:#ff7f00;fill-opacity:0.8;stroke:#000000;stroke-linejoin:miter;stroke-opacity:0.8;" x="242.45875" xlink:href="#m6d6b1a6b83" y="305.201562"/>
     </g>
    </g>
    <g id="text_22">
     <!-- $N_m=5,K=15$ -->
     <g transform="translate(278.45875 312.201562)scale(0.2 -0.2)">
      <use transform="translate(0 0.6875)" xlink:href="#Cmmi10-78"/>
      <use transform="translate(80.322266 -16.31875)scale(0.7)" xlink:href="#Cmmi10-109"/>
      <use transform="translate(165.713281 0.6875)" xlink:href="#Cmr10-61"/>
      <use transform="translate(260.957422 0.6875)" xlink:href="#Cmr10-53"/>
      <use transform="translate(310.957422 0.6875)" xlink:href="#Cmmi10-59"/>
      <use transform="translate(356.201563 0.6875)" xlink:href="#Cmmi10-75"/>
      <use transform="translate(458.672266 0.6875)" xlink:href="#Cmr10-61"/>
      <use transform="translate(553.916406 0.6875)" xlink:href="#Cmr10-49"/>
      <use transform="translate(603.916406 0.6875)" xlink:href="#Cmr10-53"/>
     </g>
    </g>
   </g>
  </g>
 </g>
 <defs>
  <clipPath id="pa01d19ab50">
   <rect height="665.28" width="334.8" x="92.45875" y="14.798437"/>
  </clipPath>
 </defs>
</svg>
