<?xml version="1.0" encoding="utf-8" standalone="no"?>
<!DOCTYPE svg PUBLIC "-//W3C//DTD SVG 1.1//EN"
  "http://www.w3.org/Graphics/SVG/1.1/DTD/svg11.dtd">
<!-- Created with matplotlib (https://matplotlib.org/) -->
<svg height="833.86375pt" version="1.1" viewBox="0 0 403.105424 833.86375" width="403.105424pt" xmlns="http://www.w3.org/2000/svg" xmlns:xlink="http://www.w3.org/1999/xlink">
 <metadata>
  <rdf:RDF xmlns:cc="http://creativecommons.org/ns#" xmlns:dc="http://purl.org/dc/elements/1.1/" xmlns:rdf="http://www.w3.org/1999/02/22-rdf-syntax-ns#">
   <cc:Work>
    <dc:type rdf:resource="http://purl.org/dc/dcmitype/StillImage"/>
    <dc:date>2021-08-04T10:02:20.922983</dc:date>
    <dc:format>image/svg+xml</dc:format>
    <dc:creator>
     <cc:Agent>
      <dc:title>Matplotlib v3.3.3, https://matplotlib.org/</dc:title>
     </cc:Agent>
    </dc:creator>
   </cc:Work>
  </rdf:RDF>
 </metadata>
 <defs>
  <style type="text/css">*{stroke-linecap:butt;stroke-linejoin:round;}</style>
 </defs>
 <g id="figure_1">
  <g id="patch_1">
   <path d="M 0 833.86375 
L 403.105424 833.86375 
L 403.105424 0 
L 0 0 
z
" style="fill:none;"/>
  </g>
  <g id="axes_1">
   <g id="patch_2">
    <path d="M 88.1275 766.58 
L 395.905424 766.58 
L 395.905424 7.2 
L 88.1275 7.2 
z
" style="fill:none;"/>
   </g>
   <g id="matplotlib.axis_1">
    <g id="xtick_1">
     <g id="line2d_1">
      <path clip-path="url(#p713877870f)" d="M 102.117406 766.58 
L 102.117406 7.2 
" style="fill:none;stroke:#a6a6a6;stroke-linecap:square;stroke-width:0.8;"/>
     </g>
     <g id="line2d_2">
      <defs>
       <path d="M 0 0 
L 0 10 
" id="m533541b841" style="stroke:#000000;"/>
      </defs>
      <g>
       <use style="stroke:#000000;" x="102.117406" xlink:href="#m533541b841" y="766.58"/>
      </g>
     </g>
     <g id="text_1">
      <!-- 1 -->
      <g transform="translate(95.754906 795.276875)scale(0.2 -0.2)">
       <defs>
        <path d="M 12.40625 8.296875 
L 28.515625 8.296875 
L 28.515625 63.921875 
L 10.984375 60.40625 
L 10.984375 69.390625 
L 28.421875 72.90625 
L 38.28125 72.90625 
L 38.28125 8.296875 
L 54.390625 8.296875 
L 54.390625 0 
L 12.40625 0 
z
" id="DejaVuSans-49"/>
       </defs>
       <use xlink:href="#DejaVuSans-49"/>
      </g>
     </g>
    </g>
    <g id="xtick_2">
     <g id="line2d_3">
      <path clip-path="url(#p713877870f)" d="M 195.383443 766.58 
L 195.383443 7.2 
" style="fill:none;stroke:#a6a6a6;stroke-linecap:square;stroke-width:0.8;"/>
     </g>
     <g id="line2d_4">
      <g>
       <use style="stroke:#000000;" x="195.383443" xlink:href="#m533541b841" y="766.58"/>
      </g>
     </g>
     <g id="text_2">
      <!-- 2 -->
      <g transform="translate(189.020943 795.276875)scale(0.2 -0.2)">
       <defs>
        <path d="M 19.1875 8.296875 
L 53.609375 8.296875 
L 53.609375 0 
L 7.328125 0 
L 7.328125 8.296875 
Q 12.9375 14.109375 22.625 23.890625 
Q 32.328125 33.6875 34.8125 36.53125 
Q 39.546875 41.84375 41.421875 45.53125 
Q 43.3125 49.21875 43.3125 52.78125 
Q 43.3125 58.59375 39.234375 62.25 
Q 35.15625 65.921875 28.609375 65.921875 
Q 23.96875 65.921875 18.8125 64.3125 
Q 13.671875 62.703125 7.8125 59.421875 
L 7.8125 69.390625 
Q 13.765625 71.78125 18.9375 73 
Q 24.125 74.21875 28.421875 74.21875 
Q 39.75 74.21875 46.484375 68.546875 
Q 53.21875 62.890625 53.21875 53.421875 
Q 53.21875 48.921875 51.53125 44.890625 
Q 49.859375 40.875 45.40625 35.40625 
Q 44.1875 33.984375 37.640625 27.21875 
Q 31.109375 20.453125 19.1875 8.296875 
z
" id="DejaVuSans-50"/>
       </defs>
       <use xlink:href="#DejaVuSans-50"/>
      </g>
     </g>
    </g>
    <g id="xtick_3">
     <g id="line2d_5">
      <path clip-path="url(#p713877870f)" d="M 288.649481 766.58 
L 288.649481 7.2 
" style="fill:none;stroke:#a6a6a6;stroke-linecap:square;stroke-width:0.8;"/>
     </g>
     <g id="line2d_6">
      <g>
       <use style="stroke:#000000;" x="288.649481" xlink:href="#m533541b841" y="766.58"/>
      </g>
     </g>
     <g id="text_3">
      <!-- 3 -->
      <g transform="translate(282.286981 795.276875)scale(0.2 -0.2)">
       <defs>
        <path d="M 40.578125 39.3125 
Q 47.65625 37.796875 51.625 33 
Q 55.609375 28.21875 55.609375 21.1875 
Q 55.609375 10.40625 48.1875 4.484375 
Q 40.765625 -1.421875 27.09375 -1.421875 
Q 22.515625 -1.421875 17.65625 -0.515625 
Q 12.796875 0.390625 7.625 2.203125 
L 7.625 11.71875 
Q 11.71875 9.328125 16.59375 8.109375 
Q 21.484375 6.890625 26.8125 6.890625 
Q 36.078125 6.890625 40.9375 10.546875 
Q 45.796875 14.203125 45.796875 21.1875 
Q 45.796875 27.640625 41.28125 31.265625 
Q 36.765625 34.90625 28.71875 34.90625 
L 20.21875 34.90625 
L 20.21875 43.015625 
L 29.109375 43.015625 
Q 36.375 43.015625 40.234375 45.921875 
Q 44.09375 48.828125 44.09375 54.296875 
Q 44.09375 59.90625 40.109375 62.90625 
Q 36.140625 65.921875 28.71875 65.921875 
Q 24.65625 65.921875 20.015625 65.03125 
Q 15.375 64.15625 9.8125 62.3125 
L 9.8125 71.09375 
Q 15.4375 72.65625 20.34375 73.4375 
Q 25.25 74.21875 29.59375 74.21875 
Q 40.828125 74.21875 47.359375 69.109375 
Q 53.90625 64.015625 53.90625 55.328125 
Q 53.90625 49.265625 50.4375 45.09375 
Q 46.96875 40.921875 40.578125 39.3125 
z
" id="DejaVuSans-51"/>
       </defs>
       <use xlink:href="#DejaVuSans-51"/>
      </g>
     </g>
    </g>
    <g id="xtick_4">
     <g id="line2d_7">
      <path clip-path="url(#p713877870f)" d="M 381.915519 766.58 
L 381.915519 7.2 
" style="fill:none;stroke:#a6a6a6;stroke-linecap:square;stroke-width:0.8;"/>
     </g>
     <g id="line2d_8">
      <g>
       <use style="stroke:#000000;" x="381.915519" xlink:href="#m533541b841" y="766.58"/>
      </g>
     </g>
     <g id="text_4">
      <!-- 4 -->
      <g transform="translate(375.553019 795.276875)scale(0.2 -0.2)">
       <defs>
        <path d="M 37.796875 64.3125 
L 12.890625 25.390625 
L 37.796875 25.390625 
z
M 35.203125 72.90625 
L 47.609375 72.90625 
L 47.609375 25.390625 
L 58.015625 25.390625 
L 58.015625 17.1875 
L 47.609375 17.1875 
L 47.609375 0 
L 37.796875 0 
L 37.796875 17.1875 
L 4.890625 17.1875 
L 4.890625 26.703125 
z
" id="DejaVuSans-52"/>
       </defs>
       <use xlink:href="#DejaVuSans-52"/>
      </g>
     </g>
    </g>
    <g id="text_5">
     <!-- $N_e$ -->
     <g transform="translate(227.616462 821.6725)scale(0.24 -0.24)">
      <defs>
       <path d="M 4.6875 0 
Q 3.71875 0 3.71875 1.3125 
Q 3.765625 1.5625 3.90625 2.171875 
Q 4.046875 2.78125 4.3125 3.140625 
Q 4.59375 3.515625 4.984375 3.515625 
Q 14.546875 3.515625 16.109375 9.625 
L 29.6875 64.3125 
Q 26.90625 64.796875 20.90625 64.796875 
Q 19.921875 64.796875 19.921875 66.109375 
Q 19.96875 66.359375 20.109375 66.96875 
Q 20.265625 67.578125 20.53125 67.9375 
Q 20.796875 68.3125 21.1875 68.3125 
L 38.484375 68.3125 
Q 39.203125 68.3125 39.40625 67.671875 
L 61.625 14.796875 
L 72.703125 59.078125 
Q 72.90625 60.15625 72.90625 60.59375 
Q 72.90625 64.796875 65.1875 64.796875 
Q 64.203125 64.796875 64.203125 66.109375 
Q 64.546875 67.390625 64.734375 67.84375 
Q 64.9375 68.3125 65.921875 68.3125 
L 87.3125 68.3125 
Q 88.28125 68.3125 88.28125 67 
Q 88.234375 66.75 88.078125 66.140625 
Q 87.9375 65.53125 87.671875 65.15625 
Q 87.40625 64.796875 87.015625 64.796875 
Q 77.4375 64.796875 75.875 58.6875 
L 61.53125 0.875 
Q 61.1875 0 60.5 0 
L 59.28125 0 
Q 58.59375 0 58.40625 0.6875 
L 32.90625 61.1875 
L 32.71875 61.8125 
Q 32.515625 62.015625 32.515625 62.109375 
L 19.28125 9.1875 
Q 19.1875 8.9375 19.140625 8.5625 
Q 19.09375 8.203125 19 7.71875 
Q 19 5.125 21.234375 4.3125 
Q 23.484375 3.515625 26.8125 3.515625 
Q 27.78125 3.515625 27.78125 2.203125 
Q 27.4375 0.828125 27.1875 0.40625 
Q 26.953125 0 26.125 0 
z
" id="Cmmi10-78"/>
       <path d="M 20.125 -1.125 
Q 15.328125 -1.125 11.734375 1.359375 
Q 8.15625 3.859375 6.265625 8.078125 
Q 4.390625 12.3125 4.390625 17 
Q 4.390625 24.125 7.984375 30.390625 
Q 11.578125 36.671875 17.71875 40.421875 
Q 23.875 44.1875 30.90625 44.1875 
Q 35.203125 44.1875 38.40625 41.96875 
Q 41.609375 39.75 41.609375 35.59375 
Q 41.609375 29.828125 37.015625 27.015625 
Q 32.421875 24.21875 26.65625 23.5625 
Q 20.90625 22.90625 13.921875 22.90625 
L 13.625 22.90625 
Q 12.015625 16.9375 12.015625 12.703125 
Q 12.015625 8.25 14.0625 4.875 
Q 16.109375 1.515625 20.3125 1.515625 
Q 26.265625 1.515625 31.75 4.25 
Q 37.25 6.984375 40.71875 11.8125 
Q 41.015625 12.109375 41.5 12.109375 
Q 42 12.109375 42.5 11.546875 
Q 43.015625 10.984375 43.015625 10.5 
Q 43.015625 10.109375 42.828125 9.90625 
Q 39.15625 4.78125 32.953125 1.828125 
Q 26.765625 -1.125 20.125 -1.125 
z
M 14.203125 25.484375 
Q 20.015625 25.484375 24.953125 26.015625 
Q 29.890625 26.5625 33.890625 28.734375 
Q 37.890625 30.90625 37.890625 35.5 
Q 37.890625 37.359375 36.859375 38.75 
Q 35.84375 40.140625 34.203125 40.875 
Q 32.5625 41.609375 30.8125 41.609375 
Q 26.5625 41.609375 23.171875 39.3125 
Q 19.78125 37.015625 17.578125 33.328125 
Q 15.375 29.640625 14.203125 25.484375 
z
" id="Cmmi10-101"/>
      </defs>
      <use transform="translate(0 0.6875)" xlink:href="#Cmmi10-78"/>
      <use transform="translate(80.322266 -16.31875)scale(0.7)" xlink:href="#Cmmi10-101"/>
     </g>
    </g>
   </g>
   <g id="matplotlib.axis_2">
    <g id="ytick_1">
     <g id="line2d_9">
      <path clip-path="url(#p713877870f)" d="M 88.1275 714.862053 
L 395.905424 714.862053 
" style="fill:none;stroke:#a6a6a6;stroke-linecap:square;stroke-width:0.8;"/>
     </g>
     <g id="line2d_10">
      <defs>
       <path d="M 0 0 
L -10 0 
" id="m465e907e26" style="stroke:#000000;"/>
      </defs>
      <g>
       <use style="stroke:#000000;" x="88.1275" xlink:href="#m465e907e26" y="714.862053"/>
      </g>
     </g>
     <g id="text_6">
      <!-- $\mathdefault{10^{-2}}$ -->
      <g transform="translate(34.4275 722.46049)scale(0.2 -0.2)">
       <defs>
        <path d="M 31.78125 66.40625 
Q 24.171875 66.40625 20.328125 58.90625 
Q 16.5 51.421875 16.5 36.375 
Q 16.5 21.390625 20.328125 13.890625 
Q 24.171875 6.390625 31.78125 6.390625 
Q 39.453125 6.390625 43.28125 13.890625 
Q 47.125 21.390625 47.125 36.375 
Q 47.125 51.421875 43.28125 58.90625 
Q 39.453125 66.40625 31.78125 66.40625 
z
M 31.78125 74.21875 
Q 44.046875 74.21875 50.515625 64.515625 
Q 56.984375 54.828125 56.984375 36.375 
Q 56.984375 17.96875 50.515625 8.265625 
Q 44.046875 -1.421875 31.78125 -1.421875 
Q 19.53125 -1.421875 13.0625 8.265625 
Q 6.59375 17.96875 6.59375 36.375 
Q 6.59375 54.828125 13.0625 64.515625 
Q 19.53125 74.21875 31.78125 74.21875 
z
" id="DejaVuSans-48"/>
        <path d="M 4.890625 31.390625 
L 31.203125 31.390625 
L 31.203125 23.390625 
L 4.890625 23.390625 
z
" id="DejaVuSans-45"/>
       </defs>
       <use transform="translate(0 0.765625)" xlink:href="#DejaVuSans-49"/>
       <use transform="translate(63.623047 0.765625)" xlink:href="#DejaVuSans-48"/>
       <use transform="translate(128.203125 39.046875)scale(0.7)" xlink:href="#DejaVuSans-45"/>
       <use transform="translate(153.461914 39.046875)scale(0.7)" xlink:href="#DejaVuSans-50"/>
      </g>
     </g>
    </g>
    <g id="ytick_2">
     <g id="line2d_11">
      <path clip-path="url(#p713877870f)" d="M 88.1275 48.448434 
L 395.905424 48.448434 
" style="fill:none;stroke:#a6a6a6;stroke-linecap:square;stroke-width:0.8;"/>
     </g>
     <g id="line2d_12">
      <g>
       <use style="stroke:#000000;" x="88.1275" xlink:href="#m465e907e26" y="48.448434"/>
      </g>
     </g>
     <g id="text_7">
      <!-- $\mathdefault{10^{-1}}$ -->
      <g transform="translate(34.4275 56.046872)scale(0.2 -0.2)">
       <use transform="translate(0 0.684375)" xlink:href="#DejaVuSans-49"/>
       <use transform="translate(63.623047 0.684375)" xlink:href="#DejaVuSans-48"/>
       <use transform="translate(128.203125 38.965625)scale(0.7)" xlink:href="#DejaVuSans-45"/>
       <use transform="translate(153.461914 38.965625)scale(0.7)" xlink:href="#DejaVuSans-49"/>
      </g>
     </g>
    </g>
    <g id="ytick_3">
     <g id="line2d_13">
      <path clip-path="url(#p713877870f)" d="M 88.1275 745.355468 
L 395.905424 745.355468 
" style="fill:none;stroke:#a6a6a6;stroke-linecap:square;stroke-width:0.8;"/>
     </g>
     <g id="line2d_14">
      <g>
       <use style="stroke:#000000;" x="88.1275" xlink:href="#m465e907e26" y="745.355468"/>
      </g>
     </g>
    </g>
    <g id="ytick_4">
     <g id="line2d_15">
      <path clip-path="url(#p713877870f)" d="M 88.1275 514.251564 
L 395.905424 514.251564 
" style="fill:none;stroke:#a6a6a6;stroke-linecap:square;stroke-width:0.8;"/>
     </g>
     <g id="line2d_16">
      <g>
       <use style="stroke:#000000;" x="88.1275" xlink:href="#m465e907e26" y="514.251564"/>
      </g>
     </g>
    </g>
    <g id="ytick_5">
     <g id="line2d_17">
      <path clip-path="url(#p713877870f)" d="M 88.1275 396.901951 
L 395.905424 396.901951 
" style="fill:none;stroke:#a6a6a6;stroke-linecap:square;stroke-width:0.8;"/>
     </g>
     <g id="line2d_18">
      <g>
       <use style="stroke:#000000;" x="88.1275" xlink:href="#m465e907e26" y="396.901951"/>
      </g>
     </g>
    </g>
    <g id="ytick_6">
     <g id="line2d_19">
      <path clip-path="url(#p713877870f)" d="M 88.1275 313.641075 
L 395.905424 313.641075 
" style="fill:none;stroke:#a6a6a6;stroke-linecap:square;stroke-width:0.8;"/>
     </g>
     <g id="line2d_20">
      <g>
       <use style="stroke:#000000;" x="88.1275" xlink:href="#m465e907e26" y="313.641075"/>
      </g>
     </g>
    </g>
    <g id="ytick_7">
     <g id="line2d_21">
      <path clip-path="url(#p713877870f)" d="M 88.1275 249.058923 
L 395.905424 249.058923 
" style="fill:none;stroke:#a6a6a6;stroke-linecap:square;stroke-width:0.8;"/>
     </g>
     <g id="line2d_22">
      <g>
       <use style="stroke:#000000;" x="88.1275" xlink:href="#m465e907e26" y="249.058923"/>
      </g>
     </g>
    </g>
    <g id="ytick_8">
     <g id="line2d_23">
      <path clip-path="url(#p713877870f)" d="M 88.1275 196.291462 
L 395.905424 196.291462 
" style="fill:none;stroke:#a6a6a6;stroke-linecap:square;stroke-width:0.8;"/>
     </g>
     <g id="line2d_24">
      <g>
       <use style="stroke:#000000;" x="88.1275" xlink:href="#m465e907e26" y="196.291462"/>
      </g>
     </g>
    </g>
    <g id="ytick_9">
     <g id="line2d_25">
      <path clip-path="url(#p713877870f)" d="M 88.1275 151.67721 
L 395.905424 151.67721 
" style="fill:none;stroke:#a6a6a6;stroke-linecap:square;stroke-width:0.8;"/>
     </g>
     <g id="line2d_26">
      <g>
       <use style="stroke:#000000;" x="88.1275" xlink:href="#m465e907e26" y="151.67721"/>
      </g>
     </g>
    </g>
    <g id="ytick_10">
     <g id="line2d_27">
      <path clip-path="url(#p713877870f)" d="M 88.1275 113.030587 
L 395.905424 113.030587 
" style="fill:none;stroke:#a6a6a6;stroke-linecap:square;stroke-width:0.8;"/>
     </g>
     <g id="line2d_28">
      <g>
       <use style="stroke:#000000;" x="88.1275" xlink:href="#m465e907e26" y="113.030587"/>
      </g>
     </g>
    </g>
    <g id="ytick_11">
     <g id="line2d_29">
      <path clip-path="url(#p713877870f)" d="M 88.1275 78.941849 
L 395.905424 78.941849 
" style="fill:none;stroke:#a6a6a6;stroke-linecap:square;stroke-width:0.8;"/>
     </g>
     <g id="line2d_30">
      <g>
       <use style="stroke:#000000;" x="88.1275" xlink:href="#m465e907e26" y="78.941849"/>
      </g>
     </g>
    </g>
    <g id="text_8">
     <!-- Error -->
     <g transform="translate(25.43625 416.134375)rotate(-90)scale(0.24 -0.24)">
      <defs>
       <path d="M 9.8125 72.90625 
L 55.90625 72.90625 
L 55.90625 64.59375 
L 19.671875 64.59375 
L 19.671875 43.015625 
L 54.390625 43.015625 
L 54.390625 34.71875 
L 19.671875 34.71875 
L 19.671875 8.296875 
L 56.78125 8.296875 
L 56.78125 0 
L 9.8125 0 
z
" id="DejaVuSans-69"/>
       <path d="M 41.109375 46.296875 
Q 39.59375 47.171875 37.8125 47.578125 
Q 36.03125 48 33.890625 48 
Q 26.265625 48 22.1875 43.046875 
Q 18.109375 38.09375 18.109375 28.8125 
L 18.109375 0 
L 9.078125 0 
L 9.078125 54.6875 
L 18.109375 54.6875 
L 18.109375 46.1875 
Q 20.953125 51.171875 25.484375 53.578125 
Q 30.03125 56 36.53125 56 
Q 37.453125 56 38.578125 55.875 
Q 39.703125 55.765625 41.0625 55.515625 
z
" id="DejaVuSans-114"/>
       <path d="M 30.609375 48.390625 
Q 23.390625 48.390625 19.1875 42.75 
Q 14.984375 37.109375 14.984375 27.296875 
Q 14.984375 17.484375 19.15625 11.84375 
Q 23.34375 6.203125 30.609375 6.203125 
Q 37.796875 6.203125 41.984375 11.859375 
Q 46.1875 17.53125 46.1875 27.296875 
Q 46.1875 37.015625 41.984375 42.703125 
Q 37.796875 48.390625 30.609375 48.390625 
z
M 30.609375 56 
Q 42.328125 56 49.015625 48.375 
Q 55.71875 40.765625 55.71875 27.296875 
Q 55.71875 13.875 49.015625 6.21875 
Q 42.328125 -1.421875 30.609375 -1.421875 
Q 18.84375 -1.421875 12.171875 6.21875 
Q 5.515625 13.875 5.515625 27.296875 
Q 5.515625 40.765625 12.171875 48.375 
Q 18.84375 56 30.609375 56 
z
" id="DejaVuSans-111"/>
      </defs>
      <use xlink:href="#DejaVuSans-69"/>
      <use x="63.183594" xlink:href="#DejaVuSans-114"/>
      <use x="102.546875" xlink:href="#DejaVuSans-114"/>
      <use x="141.410156" xlink:href="#DejaVuSans-111"/>
      <use x="202.591797" xlink:href="#DejaVuSans-114"/>
     </g>
    </g>
   </g>
   <g id="line2d_31">
    <path clip-path="url(#p713877870f)" d="M 102.117406 729.768282 
L 195.383443 261.948875 
L 288.649481 111.579894 
L 381.915519 83.456453 
" style="fill:none;stroke:#e41a1c;stroke-linecap:square;stroke-opacity:0.8;stroke-width:3;"/>
    <defs>
     <path d="M -5 5 
L 5 5 
L 5 -5 
L -5 -5 
z
" id="m991922a016" style="stroke:#000000;stroke-linejoin:miter;stroke-opacity:0.8;"/>
    </defs>
    <g clip-path="url(#p713877870f)">
     <use style="fill:#e41a1c;fill-opacity:0.8;stroke:#000000;stroke-linejoin:miter;stroke-opacity:0.8;" x="102.117406" xlink:href="#m991922a016" y="729.768282"/>
     <use style="fill:#e41a1c;fill-opacity:0.8;stroke:#000000;stroke-linejoin:miter;stroke-opacity:0.8;" x="195.383443" xlink:href="#m991922a016" y="261.948875"/>
     <use style="fill:#e41a1c;fill-opacity:0.8;stroke:#000000;stroke-linejoin:miter;stroke-opacity:0.8;" x="288.649481" xlink:href="#m991922a016" y="111.579894"/>
     <use style="fill:#e41a1c;fill-opacity:0.8;stroke:#000000;stroke-linejoin:miter;stroke-opacity:0.8;" x="381.915519" xlink:href="#m991922a016" y="83.456453"/>
    </g>
   </g>
   <g id="line2d_32">
    <path clip-path="url(#p713877870f)" d="M 102.117406 732.062727 
L 195.383443 343.347696 
L 288.649481 175.468145 
L 381.915519 100.745103 
" style="fill:none;stroke:#377eb8;stroke-linecap:square;stroke-opacity:0.8;stroke-width:3;"/>
    <defs>
     <path d="M -5 5 
L 5 5 
L 5 -5 
L -5 -5 
z
" id="m3cdaae2044" style="stroke:#000000;stroke-linejoin:miter;stroke-opacity:0.8;"/>
    </defs>
    <g clip-path="url(#p713877870f)">
     <use style="fill:#377eb8;fill-opacity:0.8;stroke:#000000;stroke-linejoin:miter;stroke-opacity:0.8;" x="102.117406" xlink:href="#m3cdaae2044" y="732.062727"/>
     <use style="fill:#377eb8;fill-opacity:0.8;stroke:#000000;stroke-linejoin:miter;stroke-opacity:0.8;" x="195.383443" xlink:href="#m3cdaae2044" y="343.347696"/>
     <use style="fill:#377eb8;fill-opacity:0.8;stroke:#000000;stroke-linejoin:miter;stroke-opacity:0.8;" x="288.649481" xlink:href="#m3cdaae2044" y="175.468145"/>
     <use style="fill:#377eb8;fill-opacity:0.8;stroke:#000000;stroke-linejoin:miter;stroke-opacity:0.8;" x="381.915519" xlink:href="#m3cdaae2044" y="100.745103"/>
    </g>
   </g>
   <g id="line2d_33">
    <path clip-path="url(#p713877870f)" d="M 102.117406 730.775598 
L 195.383443 307.760876 
L 288.649481 129.269205 
L 381.915519 90.672809 
" style="fill:none;stroke:#4daf4a;stroke-linecap:square;stroke-opacity:0.8;stroke-width:3;"/>
    <defs>
     <path d="M -5 5 
L 5 5 
L 5 -5 
L -5 -5 
z
" id="m00034cb9c7" style="stroke:#000000;stroke-linejoin:miter;stroke-opacity:0.8;"/>
    </defs>
    <g clip-path="url(#p713877870f)">
     <use style="fill:#4daf4a;fill-opacity:0.8;stroke:#000000;stroke-linejoin:miter;stroke-opacity:0.8;" x="102.117406" xlink:href="#m00034cb9c7" y="730.775598"/>
     <use style="fill:#4daf4a;fill-opacity:0.8;stroke:#000000;stroke-linejoin:miter;stroke-opacity:0.8;" x="195.383443" xlink:href="#m00034cb9c7" y="307.760876"/>
     <use style="fill:#4daf4a;fill-opacity:0.8;stroke:#000000;stroke-linejoin:miter;stroke-opacity:0.8;" x="288.649481" xlink:href="#m00034cb9c7" y="129.269205"/>
     <use style="fill:#4daf4a;fill-opacity:0.8;stroke:#000000;stroke-linejoin:miter;stroke-opacity:0.8;" x="381.915519" xlink:href="#m00034cb9c7" y="90.672809"/>
    </g>
   </g>
   <g id="line2d_34">
    <path clip-path="url(#p713877870f)" d="M 102.117406 729.707346 
L 195.383443 369.545419 
L 288.649481 218.063511 
L 381.915519 124.352027 
" style="fill:none;stroke:#984ea3;stroke-linecap:square;stroke-opacity:0.8;stroke-width:3;"/>
    <defs>
     <path d="M -5 5 
L 5 5 
L 5 -5 
L -5 -5 
z
" id="m4fa2a7f0e6" style="stroke:#000000;stroke-linejoin:miter;stroke-opacity:0.8;"/>
    </defs>
    <g clip-path="url(#p713877870f)">
     <use style="fill:#984ea3;fill-opacity:0.8;stroke:#000000;stroke-linejoin:miter;stroke-opacity:0.8;" x="102.117406" xlink:href="#m4fa2a7f0e6" y="729.707346"/>
     <use style="fill:#984ea3;fill-opacity:0.8;stroke:#000000;stroke-linejoin:miter;stroke-opacity:0.8;" x="195.383443" xlink:href="#m4fa2a7f0e6" y="369.545419"/>
     <use style="fill:#984ea3;fill-opacity:0.8;stroke:#000000;stroke-linejoin:miter;stroke-opacity:0.8;" x="288.649481" xlink:href="#m4fa2a7f0e6" y="218.063511"/>
     <use style="fill:#984ea3;fill-opacity:0.8;stroke:#000000;stroke-linejoin:miter;stroke-opacity:0.8;" x="381.915519" xlink:href="#m4fa2a7f0e6" y="124.352027"/>
    </g>
   </g>
   <g id="line2d_35">
    <path clip-path="url(#p713877870f)" d="M 102.117406 382.468892 
L 195.383443 72.700287 
L 288.649481 48.740896 
L 381.915519 41.717273 
" style="fill:none;stroke:#808080;stroke-linecap:square;stroke-opacity:0.9;stroke-width:3;"/>
    <defs>
     <path d="M -5 5 
L 5 5 
L 5 -5 
L -5 -5 
z
" id="m47709394c0" style="stroke:#000000;stroke-linejoin:miter;stroke-opacity:0.9;"/>
    </defs>
    <g clip-path="url(#p713877870f)">
     <use style="fill:#808080;fill-opacity:0.9;stroke:#000000;stroke-linejoin:miter;stroke-opacity:0.9;" x="102.117406" xlink:href="#m47709394c0" y="382.468892"/>
     <use style="fill:#808080;fill-opacity:0.9;stroke:#000000;stroke-linejoin:miter;stroke-opacity:0.9;" x="195.383443" xlink:href="#m47709394c0" y="72.700287"/>
     <use style="fill:#808080;fill-opacity:0.9;stroke:#000000;stroke-linejoin:miter;stroke-opacity:0.9;" x="288.649481" xlink:href="#m47709394c0" y="48.740896"/>
     <use style="fill:#808080;fill-opacity:0.9;stroke:#000000;stroke-linejoin:miter;stroke-opacity:0.9;" x="381.915519" xlink:href="#m47709394c0" y="41.717273"/>
    </g>
   </g>
   <g id="line2d_36">
    <path clip-path="url(#p713877870f)" d="M 102.117406 729.768282 
L 195.383443 261.948875 
L 288.649481 111.579894 
L 381.915519 83.456453 
" style="fill:none;stroke:#e41a1c;stroke-linecap:square;stroke-opacity:0.8;stroke-width:3;"/>
    <g clip-path="url(#p713877870f)">
     <use style="fill:#e41a1c;fill-opacity:0.8;stroke:#000000;stroke-linejoin:miter;stroke-opacity:0.8;" x="102.117406" xlink:href="#m991922a016" y="729.768282"/>
     <use style="fill:#e41a1c;fill-opacity:0.8;stroke:#000000;stroke-linejoin:miter;stroke-opacity:0.8;" x="195.383443" xlink:href="#m991922a016" y="261.948875"/>
     <use style="fill:#e41a1c;fill-opacity:0.8;stroke:#000000;stroke-linejoin:miter;stroke-opacity:0.8;" x="288.649481" xlink:href="#m991922a016" y="111.579894"/>
     <use style="fill:#e41a1c;fill-opacity:0.8;stroke:#000000;stroke-linejoin:miter;stroke-opacity:0.8;" x="381.915519" xlink:href="#m991922a016" y="83.456453"/>
    </g>
   </g>
   <g id="line2d_37">
    <path clip-path="url(#p713877870f)" d="M 102.117406 732.062727 
L 195.383443 343.347696 
L 288.649481 175.468145 
L 381.915519 100.745103 
" style="fill:none;stroke:#377eb8;stroke-linecap:square;stroke-opacity:0.8;stroke-width:3;"/>
    <g clip-path="url(#p713877870f)">
     <use style="fill:#377eb8;fill-opacity:0.8;stroke:#000000;stroke-linejoin:miter;stroke-opacity:0.8;" x="102.117406" xlink:href="#m3cdaae2044" y="732.062727"/>
     <use style="fill:#377eb8;fill-opacity:0.8;stroke:#000000;stroke-linejoin:miter;stroke-opacity:0.8;" x="195.383443" xlink:href="#m3cdaae2044" y="343.347696"/>
     <use style="fill:#377eb8;fill-opacity:0.8;stroke:#000000;stroke-linejoin:miter;stroke-opacity:0.8;" x="288.649481" xlink:href="#m3cdaae2044" y="175.468145"/>
     <use style="fill:#377eb8;fill-opacity:0.8;stroke:#000000;stroke-linejoin:miter;stroke-opacity:0.8;" x="381.915519" xlink:href="#m3cdaae2044" y="100.745103"/>
    </g>
   </g>
   <g id="line2d_38">
    <path clip-path="url(#p713877870f)" d="M 102.117406 730.775598 
L 195.383443 307.760876 
L 288.649481 129.269205 
L 381.915519 90.672809 
" style="fill:none;stroke:#4daf4a;stroke-linecap:square;stroke-opacity:0.8;stroke-width:3;"/>
    <g clip-path="url(#p713877870f)">
     <use style="fill:#4daf4a;fill-opacity:0.8;stroke:#000000;stroke-linejoin:miter;stroke-opacity:0.8;" x="102.117406" xlink:href="#m00034cb9c7" y="730.775598"/>
     <use style="fill:#4daf4a;fill-opacity:0.8;stroke:#000000;stroke-linejoin:miter;stroke-opacity:0.8;" x="195.383443" xlink:href="#m00034cb9c7" y="307.760876"/>
     <use style="fill:#4daf4a;fill-opacity:0.8;stroke:#000000;stroke-linejoin:miter;stroke-opacity:0.8;" x="288.649481" xlink:href="#m00034cb9c7" y="129.269205"/>
     <use style="fill:#4daf4a;fill-opacity:0.8;stroke:#000000;stroke-linejoin:miter;stroke-opacity:0.8;" x="381.915519" xlink:href="#m00034cb9c7" y="90.672809"/>
    </g>
   </g>
   <g id="line2d_39">
    <path clip-path="url(#p713877870f)" d="M 102.117406 729.707346 
L 195.383443 369.545419 
L 288.649481 218.063511 
L 381.915519 124.352027 
" style="fill:none;stroke:#984ea3;stroke-linecap:square;stroke-opacity:0.8;stroke-width:3;"/>
    <g clip-path="url(#p713877870f)">
     <use style="fill:#984ea3;fill-opacity:0.8;stroke:#000000;stroke-linejoin:miter;stroke-opacity:0.8;" x="102.117406" xlink:href="#m4fa2a7f0e6" y="729.707346"/>
     <use style="fill:#984ea3;fill-opacity:0.8;stroke:#000000;stroke-linejoin:miter;stroke-opacity:0.8;" x="195.383443" xlink:href="#m4fa2a7f0e6" y="369.545419"/>
     <use style="fill:#984ea3;fill-opacity:0.8;stroke:#000000;stroke-linejoin:miter;stroke-opacity:0.8;" x="288.649481" xlink:href="#m4fa2a7f0e6" y="218.063511"/>
     <use style="fill:#984ea3;fill-opacity:0.8;stroke:#000000;stroke-linejoin:miter;stroke-opacity:0.8;" x="381.915519" xlink:href="#m4fa2a7f0e6" y="124.352027"/>
    </g>
   </g>
   <g id="line2d_40">
    <path clip-path="url(#p713877870f)" d="M 102.117406 382.468892 
L 195.383443 72.700287 
L 288.649481 48.740896 
L 381.915519 41.717273 
" style="fill:none;stroke:#808080;stroke-linecap:square;stroke-opacity:0.9;stroke-width:3;"/>
    <g clip-path="url(#p713877870f)">
     <use style="fill:#808080;fill-opacity:0.9;stroke:#000000;stroke-linejoin:miter;stroke-opacity:0.9;" x="102.117406" xlink:href="#m47709394c0" y="382.468892"/>
     <use style="fill:#808080;fill-opacity:0.9;stroke:#000000;stroke-linejoin:miter;stroke-opacity:0.9;" x="195.383443" xlink:href="#m47709394c0" y="72.700287"/>
     <use style="fill:#808080;fill-opacity:0.9;stroke:#000000;stroke-linejoin:miter;stroke-opacity:0.9;" x="288.649481" xlink:href="#m47709394c0" y="48.740896"/>
     <use style="fill:#808080;fill-opacity:0.9;stroke:#000000;stroke-linejoin:miter;stroke-opacity:0.9;" x="381.915519" xlink:href="#m47709394c0" y="41.717273"/>
    </g>
   </g>
   <g id="patch_3">
    <path d="M 88.1275 766.58 
L 88.1275 7.2 
" style="fill:none;stroke:#000000;stroke-linecap:square;stroke-linejoin:miter;stroke-width:0.8;"/>
   </g>
   <g id="patch_4">
    <path d="M 395.905424 766.58 
L 395.905424 7.2 
" style="fill:none;stroke:#000000;stroke-linecap:square;stroke-linejoin:miter;stroke-width:0.8;"/>
   </g>
   <g id="patch_5">
    <path d="M 88.1275 766.58 
L 395.905424 766.58 
" style="fill:none;stroke:#000000;stroke-linecap:square;stroke-linejoin:miter;stroke-width:0.8;"/>
   </g>
   <g id="patch_6">
    <path d="M 88.1275 7.2 
L 395.905424 7.2 
" style="fill:none;stroke:#000000;stroke-linecap:square;stroke-linejoin:miter;stroke-width:0.8;"/>
   </g>
   <g id="legend_1">
    <g id="patch_7">
     <path d="M 187.105424 756.58 
L 381.905424 756.58 
Q 385.905424 756.58 385.905424 752.58 
L 385.905424 461.0175 
Q 385.905424 457.0175 381.905424 457.0175 
L 187.105424 457.0175 
Q 183.105424 457.0175 183.105424 461.0175 
L 183.105424 752.58 
Q 183.105424 756.58 187.105424 756.58 
z
" style="fill:#ffffff;opacity:0.8;stroke:#cccccc;stroke-linejoin:miter;"/>
    </g>
    <g id="line2d_41">
     <path d="M 191.105424 473.214375 
L 231.105424 473.214375 
" style="fill:none;stroke:#e41a1c;stroke-linecap:square;stroke-opacity:0.8;stroke-width:3;"/>
    </g>
    <g id="line2d_42">
     <g>
      <use style="fill:#e41a1c;fill-opacity:0.8;stroke:#000000;stroke-linejoin:miter;stroke-opacity:0.8;" x="211.105424" xlink:href="#m991922a016" y="473.214375"/>
     </g>
    </g>
    <g id="text_9">
     <!-- $N_m=4,K=5$ -->
     <g transform="translate(247.105424 480.214375)scale(0.2 -0.2)">
      <defs>
       <path d="M 7.71875 1.703125 
Q 7.71875 2.296875 7.8125 2.59375 
L 15.28125 32.421875 
Q 16.015625 35.203125 16.015625 37.3125 
Q 16.015625 41.609375 13.09375 41.609375 
Q 9.96875 41.609375 8.453125 37.859375 
Q 6.9375 34.125 5.515625 28.421875 
Q 5.515625 28.125 5.21875 27.953125 
Q 4.9375 27.78125 4.6875 27.78125 
L 3.515625 27.78125 
Q 3.171875 27.78125 2.921875 28.140625 
Q 2.6875 28.515625 2.6875 28.8125 
Q 3.765625 33.15625 4.765625 36.171875 
Q 5.765625 39.203125 7.890625 41.6875 
Q 10.015625 44.1875 13.1875 44.1875 
Q 16.9375 44.1875 19.8125 41.8125 
Q 22.703125 39.453125 22.703125 35.796875 
Q 25.6875 39.703125 29.6875 41.9375 
Q 33.6875 44.1875 38.1875 44.1875 
Q 42.921875 44.1875 46.359375 41.765625 
Q 49.8125 39.359375 49.8125 34.90625 
Q 52.875 39.265625 57 41.71875 
Q 61.140625 44.1875 66.015625 44.1875 
Q 71.1875 44.1875 74.328125 41.375 
Q 77.484375 38.578125 77.484375 33.40625 
Q 77.484375 29.296875 75.65625 23.484375 
Q 73.828125 17.671875 71.09375 10.5 
Q 69.671875 7.03125 69.671875 4.5 
Q 69.671875 1.515625 72.015625 1.515625 
Q 75.921875 1.515625 78.515625 5.703125 
Q 81.109375 9.90625 82.171875 14.703125 
Q 82.46875 15.28125 83.015625 15.28125 
L 84.1875 15.28125 
Q 84.578125 15.28125 84.84375 15.015625 
Q 85.109375 14.75 85.109375 14.40625 
Q 85.109375 14.3125 85.015625 14.109375 
Q 83.640625 8.453125 80.25 3.65625 
Q 76.859375 -1.125 71.78125 -1.125 
Q 68.265625 -1.125 65.765625 1.296875 
Q 63.28125 3.71875 63.28125 7.171875 
Q 63.28125 8.9375 64.109375 11.078125 
Q 66.9375 18.609375 68.8125 24.515625 
Q 70.703125 30.421875 70.703125 34.90625 
Q 70.703125 37.703125 69.578125 39.65625 
Q 68.453125 41.609375 65.828125 41.609375 
Q 60.359375 41.609375 56.34375 38.25 
Q 52.34375 34.90625 49.421875 29.390625 
Q 49.21875 28.421875 49.125 27.875 
L 42.671875 2.203125 
Q 42.328125 0.828125 41.125 -0.140625 
Q 39.9375 -1.125 38.484375 -1.125 
Q 37.3125 -1.125 36.40625 -0.34375 
Q 35.5 0.4375 35.5 1.703125 
Q 35.5 2.296875 35.59375 2.59375 
L 42 28.078125 
Q 43.015625 32.171875 43.015625 34.90625 
Q 43.015625 37.703125 41.859375 39.65625 
Q 40.71875 41.609375 37.984375 41.609375 
Q 34.328125 41.609375 31.25 39.984375 
Q 28.171875 38.375 25.875 35.71875 
Q 23.578125 33.0625 21.6875 29.390625 
L 14.890625 2.203125 
Q 14.546875 0.828125 13.34375 -0.140625 
Q 12.15625 -1.125 10.6875 -1.125 
Q 9.46875 -1.125 8.59375 -0.34375 
Q 7.71875 0.4375 7.71875 1.703125 
z
" id="Cmmi10-109"/>
       <path d="M 7.515625 13.28125 
Q 6.6875 13.28125 6.140625 13.90625 
Q 5.609375 14.546875 5.609375 15.28125 
Q 5.609375 16.109375 6.140625 16.6875 
Q 6.6875 17.28125 7.515625 17.28125 
L 70.3125 17.28125 
Q 71.046875 17.28125 71.578125 16.6875 
Q 72.125 16.109375 72.125 15.28125 
Q 72.125 14.546875 71.578125 13.90625 
Q 71.046875 13.28125 70.3125 13.28125 
z
M 7.515625 32.71875 
Q 6.6875 32.71875 6.140625 33.296875 
Q 5.609375 33.890625 5.609375 34.71875 
Q 5.609375 35.453125 6.140625 36.078125 
Q 6.6875 36.71875 7.515625 36.71875 
L 70.3125 36.71875 
Q 71.046875 36.71875 71.578125 36.078125 
Q 72.125 35.453125 72.125 34.71875 
Q 72.125 33.890625 71.578125 33.296875 
Q 71.046875 32.71875 70.3125 32.71875 
z
" id="Cmr10-61"/>
       <path d="M 2.78125 16.5 
L 2.78125 20.015625 
L 33.6875 66.109375 
Q 34.03125 66.609375 34.71875 66.609375 
L 36.1875 66.609375 
Q 37.3125 66.609375 37.3125 65.484375 
L 37.3125 20.015625 
L 47.125 20.015625 
L 47.125 16.5 
L 37.3125 16.5 
L 37.3125 6.6875 
Q 37.3125 4.640625 40.234375 4.078125 
Q 43.171875 3.515625 47.015625 3.515625 
L 47.015625 0 
L 19.484375 0 
L 19.484375 3.515625 
Q 23.34375 3.515625 26.265625 4.078125 
Q 29.203125 4.640625 29.203125 6.6875 
L 29.203125 16.5 
z
M 6.109375 20.015625 
L 29.78125 20.015625 
L 29.78125 55.421875 
z
" id="Cmr10-52"/>
       <path d="M 9.90625 -18.015625 
Q 9.90625 -17.578125 10.296875 -17.1875 
Q 13.921875 -13.71875 15.921875 -9.171875 
Q 17.921875 -4.640625 17.921875 0.390625 
L 17.921875 1.609375 
Q 16.3125 0 13.921875 0 
Q 11.625 0 10.015625 1.609375 
Q 8.40625 3.21875 8.40625 5.515625 
Q 8.40625 7.859375 10.015625 9.421875 
Q 11.625 10.984375 13.921875 10.984375 
Q 17.484375 10.984375 19 7.6875 
Q 20.515625 4.390625 20.515625 0.390625 
Q 20.515625 -5.171875 18.28125 -10.171875 
Q 16.0625 -15.1875 12.015625 -19.1875 
Q 11.625 -19.390625 11.375 -19.390625 
Q 10.890625 -19.390625 10.390625 -18.9375 
Q 9.90625 -18.5 9.90625 -18.015625 
z
" id="Cmmi10-59"/>
       <path d="M 4.6875 0 
Q 3.71875 0 3.71875 1.3125 
Q 3.765625 1.5625 3.90625 2.171875 
Q 4.046875 2.78125 4.3125 3.140625 
Q 4.59375 3.515625 4.984375 3.515625 
Q 11.078125 3.515625 13.484375 4.203125 
Q 14.796875 4.640625 15.375 6.890625 
L 29.109375 61.8125 
Q 29.296875 62.796875 29.296875 63.1875 
Q 29.296875 64.265625 28.078125 64.40625 
Q 26.21875 64.796875 20.90625 64.796875 
Q 19.921875 64.796875 19.921875 66.109375 
Q 20.265625 67.390625 20.453125 67.84375 
Q 20.65625 68.3125 21.578125 68.3125 
L 48.484375 68.3125 
Q 49.515625 68.3125 49.515625 67 
Q 49.46875 66.75 49.3125 66.15625 
Q 49.171875 65.578125 48.921875 65.1875 
Q 48.6875 64.796875 48.1875 64.796875 
Q 42.09375 64.796875 39.703125 64.109375 
Q 38.375 63.625 37.796875 61.375 
L 29.6875 29 
L 68.890625 59.28125 
Q 69 59.46875 70.140625 60.609375 
Q 71.296875 61.765625 71.296875 62.890625 
Q 71.296875 64.796875 67.921875 64.796875 
Q 66.890625 64.796875 66.890625 66.109375 
Q 67.09375 66.890625 67.203125 67.328125 
Q 67.328125 67.78125 67.640625 68.046875 
Q 67.96875 68.3125 68.609375 68.3125 
L 87.984375 68.3125 
Q 88.53125 68.3125 88.765625 67.921875 
Q 89.015625 67.53125 89.015625 67 
Q 88.96875 66.75 88.796875 66.109375 
Q 88.625 65.484375 88.359375 65.140625 
Q 88.09375 64.796875 87.59375 64.796875 
Q 80.28125 64.796875 71.578125 58.015625 
Q 71.53125 57.953125 71.4375 57.921875 
Q 71.34375 57.90625 71.234375 57.875 
Q 71.140625 57.859375 71.09375 57.8125 
L 50.484375 41.796875 
L 65.484375 6.6875 
Q 66.84375 4.5 68.40625 4 
Q 69.96875 3.515625 73.1875 3.515625 
Q 74.21875 3.515625 74.21875 2.203125 
Q 73.921875 1.03125 73.625 0.515625 
Q 73.34375 0 72.515625 0 
L 49.3125 0 
Q 48.390625 0 48.390625 1.3125 
Q 48.53125 2.34375 48.71875 2.921875 
Q 48.921875 3.515625 49.703125 3.515625 
Q 52.25 3.515625 54.03125 4.03125 
Q 55.8125 4.546875 55.8125 6.390625 
Q 55.8125 7.078125 55.71875 7.421875 
L 43.3125 36.28125 
L 28.71875 25 
L 24.125 6.5 
Q 23.875 5.28125 23.875 5.078125 
Q 23.875 4.046875 25.09375 3.90625 
Q 27 3.515625 32.328125 3.515625 
Q 33.296875 3.515625 33.296875 2.203125 
Q 32.953125 0.78125 32.75 0.390625 
Q 32.5625 0 31.59375 0 
z
" id="Cmmi10-75"/>
       <path d="M 8.6875 11.375 
Q 9.71875 8.453125 11.84375 6.046875 
Q 13.96875 3.65625 16.875 2.3125 
Q 19.78125 0.984375 22.90625 0.984375 
Q 30.125 0.984375 32.859375 6.59375 
Q 35.59375 12.203125 35.59375 20.21875 
Q 35.59375 23.6875 35.46875 26.046875 
Q 35.359375 28.421875 34.8125 30.609375 
Q 33.890625 34.125 31.5625 36.765625 
Q 29.25 39.40625 25.875 39.40625 
Q 22.515625 39.40625 20.09375 38.375 
Q 17.671875 37.359375 16.15625 35.984375 
Q 14.65625 34.625 13.484375 33.109375 
Q 12.3125 31.59375 12.015625 31.5 
L 10.890625 31.5 
Q 10.640625 31.5 10.265625 31.8125 
Q 9.90625 32.125 9.90625 32.421875 
L 9.90625 65.828125 
Q 9.90625 66.0625 10.21875 66.328125 
Q 10.546875 66.609375 10.890625 66.609375 
L 11.1875 66.609375 
Q 17.921875 63.375 25.484375 63.375 
Q 32.90625 63.375 39.796875 66.609375 
L 40.09375 66.609375 
Q 40.4375 66.609375 40.71875 66.359375 
Q 41.015625 66.109375 41.015625 65.828125 
L 41.015625 64.890625 
Q 41.015625 64.40625 40.828125 64.40625 
Q 37.40625 59.859375 32.25 57.3125 
Q 27.09375 54.78125 21.578125 54.78125 
Q 17.578125 54.78125 13.375 55.90625 
L 13.375 37.015625 
Q 16.703125 39.703125 19.3125 40.84375 
Q 21.921875 42 25.984375 42 
Q 31.5 42 35.859375 38.8125 
Q 40.234375 35.640625 42.578125 30.53125 
Q 44.921875 25.4375 44.921875 20.125 
Q 44.921875 14.109375 41.96875 8.984375 
Q 39.015625 3.859375 33.9375 0.828125 
Q 28.859375 -2.203125 22.90625 -2.203125 
Q 17.96875 -2.203125 13.84375 0.328125 
Q 9.71875 2.875 7.34375 7.171875 
Q 4.984375 11.46875 4.984375 16.3125 
Q 4.984375 18.5625 6.4375 19.96875 
Q 7.90625 21.390625 10.109375 21.390625 
Q 12.3125 21.390625 13.796875 19.9375 
Q 15.28125 18.5 15.28125 16.3125 
Q 15.28125 14.15625 13.796875 12.671875 
Q 12.3125 11.1875 10.109375 11.1875 
Q 9.765625 11.1875 9.328125 11.25 
Q 8.890625 11.328125 8.6875 11.375 
z
" id="Cmr10-53"/>
      </defs>
      <use transform="translate(0 0.6875)" xlink:href="#Cmmi10-78"/>
      <use transform="translate(80.322266 -16.31875)scale(0.7)" xlink:href="#Cmmi10-109"/>
      <use transform="translate(165.713281 0.6875)" xlink:href="#Cmr10-61"/>
      <use transform="translate(260.957422 0.6875)" xlink:href="#Cmr10-52"/>
      <use transform="translate(310.957422 0.6875)" xlink:href="#Cmmi10-59"/>
      <use transform="translate(356.201563 0.6875)" xlink:href="#Cmmi10-75"/>
      <use transform="translate(458.672266 0.6875)" xlink:href="#Cmr10-61"/>
      <use transform="translate(553.916406 0.6875)" xlink:href="#Cmr10-53"/>
     </g>
    </g>
    <g id="line2d_43">
     <path d="M 191.105424 502.570625 
L 231.105424 502.570625 
" style="fill:none;stroke:#377eb8;stroke-linecap:square;stroke-opacity:0.8;stroke-width:3;"/>
    </g>
    <g id="line2d_44">
     <g>
      <use style="fill:#377eb8;fill-opacity:0.8;stroke:#000000;stroke-linejoin:miter;stroke-opacity:0.8;" x="211.105424" xlink:href="#m3cdaae2044" y="502.570625"/>
     </g>
    </g>
    <g id="text_10">
     <!-- $N_m=4,K=10$ -->
     <g transform="translate(247.105424 509.570625)scale(0.2 -0.2)">
      <defs>
       <path d="M 9.28125 0 
L 9.28125 3.515625 
Q 21.78125 3.515625 21.78125 6.6875 
L 21.78125 59.1875 
Q 16.609375 56.6875 8.6875 56.6875 
L 8.6875 60.203125 
Q 20.953125 60.203125 27.203125 66.609375 
L 28.609375 66.609375 
Q 28.953125 66.609375 29.265625 66.328125 
Q 29.59375 66.0625 29.59375 65.71875 
L 29.59375 6.6875 
Q 29.59375 3.515625 42.09375 3.515625 
L 42.09375 0 
z
" id="Cmr10-49"/>
       <path d="M 25 -2.203125 
Q 12.75 -2.203125 8.328125 7.875 
Q 3.90625 17.96875 3.90625 31.890625 
Q 3.90625 40.578125 5.484375 48.234375 
Q 7.078125 55.90625 11.78125 61.25 
Q 16.5 66.609375 25 66.609375 
Q 31.59375 66.609375 35.78125 63.375 
Q 39.984375 60.15625 42.1875 55.046875 
Q 44.390625 49.953125 45.1875 44.109375 
Q 46 38.28125 46 31.890625 
Q 46 23.296875 44.40625 15.796875 
Q 42.828125 8.296875 38.1875 3.046875 
Q 33.546875 -2.203125 25 -2.203125 
z
M 25 0.390625 
Q 30.5625 0.390625 33.296875 6.09375 
Q 36.03125 11.8125 36.671875 18.75 
Q 37.3125 25.6875 37.3125 33.5 
Q 37.3125 41.015625 36.671875 47.359375 
Q 36.03125 53.71875 33.3125 58.859375 
Q 30.609375 64.015625 25 64.015625 
Q 19.34375 64.015625 16.609375 58.828125 
Q 13.875 53.65625 13.234375 47.328125 
Q 12.59375 41.015625 12.59375 33.5 
Q 12.59375 27.9375 12.859375 23 
Q 13.140625 18.0625 14.3125 12.8125 
Q 15.484375 7.5625 18.09375 3.96875 
Q 20.703125 0.390625 25 0.390625 
z
" id="Cmr10-48"/>
      </defs>
      <use transform="translate(0 0.6875)" xlink:href="#Cmmi10-78"/>
      <use transform="translate(80.322266 -16.31875)scale(0.7)" xlink:href="#Cmmi10-109"/>
      <use transform="translate(165.713281 0.6875)" xlink:href="#Cmr10-61"/>
      <use transform="translate(260.957422 0.6875)" xlink:href="#Cmr10-52"/>
      <use transform="translate(310.957422 0.6875)" xlink:href="#Cmmi10-59"/>
      <use transform="translate(356.201563 0.6875)" xlink:href="#Cmmi10-75"/>
      <use transform="translate(458.672266 0.6875)" xlink:href="#Cmr10-61"/>
      <use transform="translate(553.916406 0.6875)" xlink:href="#Cmr10-49"/>
      <use transform="translate(603.916406 0.6875)" xlink:href="#Cmr10-48"/>
     </g>
    </g>
    <g id="line2d_45">
     <path d="M 191.105424 531.926875 
L 231.105424 531.926875 
" style="fill:none;stroke:#4daf4a;stroke-linecap:square;stroke-opacity:0.8;stroke-width:3;"/>
    </g>
    <g id="line2d_46">
     <g>
      <use style="fill:#4daf4a;fill-opacity:0.8;stroke:#000000;stroke-linejoin:miter;stroke-opacity:0.8;" x="211.105424" xlink:href="#m00034cb9c7" y="531.926875"/>
     </g>
    </g>
    <g id="text_11">
     <!-- $N_m=5,K=5$ -->
     <g transform="translate(247.105424 538.926875)scale(0.2 -0.2)">
      <use transform="translate(0 0.6875)" xlink:href="#Cmmi10-78"/>
      <use transform="translate(80.322266 -16.31875)scale(0.7)" xlink:href="#Cmmi10-109"/>
      <use transform="translate(165.713281 0.6875)" xlink:href="#Cmr10-61"/>
      <use transform="translate(260.957422 0.6875)" xlink:href="#Cmr10-53"/>
      <use transform="translate(310.957422 0.6875)" xlink:href="#Cmmi10-59"/>
      <use transform="translate(356.201563 0.6875)" xlink:href="#Cmmi10-75"/>
      <use transform="translate(458.672266 0.6875)" xlink:href="#Cmr10-61"/>
      <use transform="translate(553.916406 0.6875)" xlink:href="#Cmr10-53"/>
     </g>
    </g>
    <g id="line2d_47">
     <path d="M 191.105424 561.283125 
L 231.105424 561.283125 
" style="fill:none;stroke:#984ea3;stroke-linecap:square;stroke-opacity:0.8;stroke-width:3;"/>
    </g>
    <g id="line2d_48">
     <g>
      <use style="fill:#984ea3;fill-opacity:0.8;stroke:#000000;stroke-linejoin:miter;stroke-opacity:0.8;" x="211.105424" xlink:href="#m4fa2a7f0e6" y="561.283125"/>
     </g>
    </g>
    <g id="text_12">
     <!-- $N_m=5,K=15$ -->
     <g transform="translate(247.105424 568.283125)scale(0.2 -0.2)">
      <use transform="translate(0 0.6875)" xlink:href="#Cmmi10-78"/>
      <use transform="translate(80.322266 -16.31875)scale(0.7)" xlink:href="#Cmmi10-109"/>
      <use transform="translate(165.713281 0.6875)" xlink:href="#Cmr10-61"/>
      <use transform="translate(260.957422 0.6875)" xlink:href="#Cmr10-53"/>
      <use transform="translate(310.957422 0.6875)" xlink:href="#Cmmi10-59"/>
      <use transform="translate(356.201563 0.6875)" xlink:href="#Cmmi10-75"/>
      <use transform="translate(458.672266 0.6875)" xlink:href="#Cmr10-61"/>
      <use transform="translate(553.916406 0.6875)" xlink:href="#Cmr10-49"/>
      <use transform="translate(603.916406 0.6875)" xlink:href="#Cmr10-53"/>
     </g>
    </g>
    <g id="line2d_49">
     <path d="M 191.105424 590.639375 
L 231.105424 590.639375 
" style="fill:none;stroke:#808080;stroke-linecap:square;stroke-opacity:0.9;stroke-width:3;"/>
    </g>
    <g id="line2d_50">
     <g>
      <use style="fill:#808080;fill-opacity:0.9;stroke:#000000;stroke-linejoin:miter;stroke-opacity:0.9;" x="211.105424" xlink:href="#m47709394c0" y="590.639375"/>
     </g>
    </g>
    <g id="text_13">
     <!-- $Baseline$ -->
     <g transform="translate(247.105424 597.639375)scale(0.2 -0.2)">
      <defs>
       <path d="M 4.984375 0 
Q 4 0 4 1.3125 
Q 4.046875 1.5625 4.1875 2.140625 
Q 4.34375 2.734375 4.578125 3.125 
Q 4.828125 3.515625 5.328125 3.515625 
Q 8.15625 3.515625 10.25 3.65625 
Q 12.359375 3.8125 13.8125 4.203125 
Q 14.984375 4.640625 15.71875 6.890625 
L 29.390625 61.8125 
Q 29.59375 62.796875 29.59375 63.1875 
Q 29.59375 64.265625 28.421875 64.40625 
Q 26.515625 64.796875 21.1875 64.796875 
Q 20.21875 64.796875 20.21875 66.109375 
Q 20.265625 66.359375 20.40625 66.96875 
Q 20.5625 67.578125 20.828125 67.9375 
Q 21.09375 68.3125 21.484375 68.3125 
L 57.328125 68.3125 
Q 60.59375 68.3125 63.796875 67.5 
Q 67 66.703125 69.703125 64.9375 
Q 72.40625 63.1875 74 60.5625 
Q 75.59375 57.953125 75.59375 54.5 
Q 75.59375 50.734375 73.65625 47.5 
Q 71.734375 44.28125 68.671875 41.890625 
Q 65.625 39.5 62.078125 37.953125 
Q 58.546875 36.421875 54.6875 35.6875 
Q 57.421875 35.6875 60.21875 34.609375 
Q 63.03125 33.546875 65.234375 31.6875 
Q 67.4375 29.828125 68.78125 27.234375 
Q 70.125 24.65625 70.125 21.6875 
Q 70.125 15.671875 65.921875 10.6875 
Q 61.71875 5.71875 55.34375 2.859375 
Q 48.96875 0 43.015625 0 
z
M 23.390625 4.296875 
Q 23.390625 3.515625 26.8125 3.515625 
L 41.109375 3.515625 
Q 46 3.515625 50.484375 6.21875 
Q 54.984375 8.9375 57.6875 13.421875 
Q 60.40625 17.921875 60.40625 22.796875 
Q 60.40625 25.78125 59.15625 28.4375 
Q 57.90625 31.109375 55.5625 32.640625 
Q 53.21875 34.1875 50.203125 34.1875 
L 30.71875 34.1875 
L 23.78125 6.5 
Q 23.390625 5.125 23.390625 4.296875 
z
M 31.390625 36.8125 
L 46.578125 36.8125 
Q 51.375 36.8125 55.890625 39.25 
Q 60.40625 41.703125 63.25 45.890625 
Q 66.109375 50.09375 66.109375 54.78125 
Q 66.109375 59.125 63.390625 61.953125 
Q 60.6875 64.796875 56.390625 64.796875 
L 42.671875 64.796875 
Q 39.984375 64.796875 39.0625 64.296875 
Q 38.140625 63.8125 37.5 61.375 
z
" id="Cmmi10-66"/>
       <path d="M 17.390625 -1.125 
Q 11.078125 -1.125 7.4375 3.640625 
Q 3.8125 8.40625 3.8125 14.890625 
Q 3.8125 21.296875 7.125 28.171875 
Q 10.453125 35.0625 16.09375 39.625 
Q 21.734375 44.1875 28.21875 44.1875 
Q 31.203125 44.1875 33.546875 42.578125 
Q 35.890625 40.96875 37.203125 38.1875 
Q 38.328125 42.1875 41.609375 42.1875 
Q 42.875 42.1875 43.71875 41.421875 
Q 44.578125 40.671875 44.578125 39.40625 
Q 44.578125 39.109375 44.546875 38.953125 
Q 44.53125 38.8125 44.484375 38.625 
L 37.5 10.6875 
Q 36.8125 7.71875 36.8125 5.8125 
Q 36.8125 1.515625 39.703125 1.515625 
Q 42.828125 1.515625 44.453125 5.484375 
Q 46.09375 9.46875 47.21875 14.703125 
Q 47.40625 15.28125 48 15.28125 
L 49.21875 15.28125 
Q 49.609375 15.28125 49.84375 14.9375 
Q 50.09375 14.59375 50.09375 14.3125 
Q 48.34375 7.328125 46.265625 3.09375 
Q 44.1875 -1.125 39.5 -1.125 
Q 36.140625 -1.125 33.546875 0.84375 
Q 30.953125 2.828125 30.328125 6.109375 
Q 23.875 -1.125 17.390625 -1.125 
z
M 17.484375 1.515625 
Q 21.09375 1.515625 24.484375 4.21875 
Q 27.875 6.9375 30.328125 10.59375 
Q 30.421875 10.6875 30.421875 10.890625 
L 35.796875 32.625 
L 35.890625 32.90625 
Q 35.296875 36.46875 33.3125 39.03125 
Q 31.34375 41.609375 27.984375 41.609375 
Q 24.609375 41.609375 21.703125 38.84375 
Q 18.796875 36.078125 16.796875 32.328125 
Q 14.84375 28.328125 13.0625 21.34375 
Q 11.28125 14.359375 11.28125 10.5 
Q 11.28125 7.03125 12.765625 4.265625 
Q 14.265625 1.515625 17.484375 1.515625 
z
" id="Cmmi10-97"/>
       <path d="M 8.6875 6.109375 
Q 11.375 1.515625 19.484375 1.515625 
Q 23 1.515625 26.171875 2.703125 
Q 29.34375 3.90625 31.421875 6.296875 
Q 33.5 8.6875 33.5 12.109375 
Q 33.5 14.703125 31.640625 16.359375 
Q 29.78125 18.015625 27.09375 18.609375 
L 21.6875 19.671875 
Q 17.96875 20.609375 15.578125 23.140625 
Q 13.1875 25.6875 13.1875 29.296875 
Q 13.1875 33.734375 15.59375 37.15625 
Q 18.015625 40.578125 21.96875 42.375 
Q 25.921875 44.1875 30.171875 44.1875 
Q 34.71875 44.1875 38.296875 42.015625 
Q 41.890625 39.84375 41.890625 35.59375 
Q 41.890625 33.296875 40.59375 31.53125 
Q 39.3125 29.78125 37.015625 29.78125 
Q 35.6875 29.78125 34.734375 30.640625 
Q 33.796875 31.5 33.796875 32.8125 
Q 33.796875 33.984375 34.453125 35.078125 
Q 35.109375 36.1875 36.203125 36.84375 
Q 37.3125 37.5 38.484375 37.5 
Q 37.59375 39.65625 35.171875 40.625 
Q 32.765625 41.609375 29.984375 41.609375 
Q 27.4375 41.609375 24.890625 40.578125 
Q 22.359375 39.546875 20.8125 37.5625 
Q 19.28125 35.59375 19.28125 32.90625 
Q 19.28125 31.109375 20.546875 29.734375 
Q 21.828125 28.375 23.6875 27.78125 
L 29.5 26.609375 
Q 32.28125 26.03125 34.59375 24.53125 
Q 36.921875 23.046875 38.25 20.765625 
Q 39.59375 18.5 39.59375 15.578125 
Q 39.59375 11.859375 37.515625 8.25 
Q 35.453125 4.640625 32.421875 2.484375 
Q 27.09375 -1.125 19.390625 -1.125 
Q 14.0625 -1.125 9.609375 1.3125 
Q 5.171875 3.765625 5.171875 8.59375 
Q 5.171875 11.328125 6.75 13.34375 
Q 8.34375 15.375 11.078125 15.375 
Q 12.703125 15.375 13.796875 14.390625 
Q 14.890625 13.421875 14.890625 11.8125 
Q 14.890625 9.515625 13.171875 7.8125 
Q 11.46875 6.109375 9.1875 6.109375 
z
" id="Cmmi10-115"/>
       <path d="M 4.390625 8.109375 
Q 4.390625 8.40625 4.46875 8.984375 
Q 4.546875 9.578125 4.609375 10.125 
Q 4.6875 10.6875 4.6875 10.984375 
L 17.09375 60.5 
Q 17.484375 62.203125 17.578125 63.1875 
Q 17.578125 64.796875 11.078125 64.796875 
Q 10.109375 64.796875 10.109375 66.109375 
Q 10.15625 66.359375 10.328125 66.984375 
Q 10.5 67.625 10.765625 67.96875 
Q 11.03125 68.3125 11.53125 68.3125 
L 25 69.390625 
Q 26.21875 69.390625 26.21875 68.109375 
L 11.8125 10.59375 
Q 11.078125 8.984375 11.078125 5.8125 
Q 11.078125 1.515625 14.015625 1.515625 
Q 17.09375 1.515625 18.625 5.34375 
Q 20.171875 9.1875 21.390625 14.703125 
Q 21.578125 15.28125 22.21875 15.28125 
L 23.390625 15.28125 
Q 23.78125 15.28125 24.046875 14.96875 
Q 24.3125 14.65625 24.3125 14.3125 
Q 23.140625 9.46875 22.1875 6.65625 
Q 21.234375 3.859375 19.140625 1.359375 
Q 17.046875 -1.125 13.8125 -1.125 
Q 9.8125 -1.125 7.09375 1.453125 
Q 4.390625 4.046875 4.390625 8.109375 
z
" id="Cmmi10-108"/>
       <path d="M 7.8125 7.171875 
Q 7.8125 9.03125 8.59375 11.078125 
L 16.703125 32.625 
Q 18.015625 36.28125 18.015625 38.625 
Q 18.015625 41.609375 15.828125 41.609375 
Q 11.859375 41.609375 9.296875 37.53125 
Q 6.734375 33.453125 5.515625 28.421875 
Q 5.328125 27.78125 4.6875 27.78125 
L 3.515625 27.78125 
Q 2.6875 27.78125 2.6875 28.71875 
L 2.6875 29 
Q 4.296875 34.96875 7.609375 39.578125 
Q 10.9375 44.1875 16.015625 44.1875 
Q 19.578125 44.1875 22.046875 41.84375 
Q 24.515625 39.5 24.515625 35.890625 
Q 24.515625 34.03125 23.6875 31.984375 
L 15.578125 10.5 
Q 14.203125 7.171875 14.203125 4.5 
Q 14.203125 1.515625 16.5 1.515625 
Q 20.40625 1.515625 23.015625 5.6875 
Q 25.640625 9.859375 26.703125 14.703125 
Q 26.90625 15.28125 27.484375 15.28125 
L 28.71875 15.28125 
Q 29.109375 15.28125 29.34375 15.015625 
Q 29.59375 14.75 29.59375 14.40625 
Q 29.59375 14.3125 29.5 14.109375 
Q 28.125 8.453125 24.734375 3.65625 
Q 21.34375 -1.125 16.3125 -1.125 
Q 12.796875 -1.125 10.296875 1.296875 
Q 7.8125 3.71875 7.8125 7.171875 
z
M 19.09375 60.59375 
Q 19.09375 62.703125 20.84375 64.40625 
Q 22.609375 66.109375 24.703125 66.109375 
Q 26.421875 66.109375 27.515625 65.0625 
Q 28.609375 64.015625 28.609375 62.40625 
Q 28.609375 60.15625 26.828125 58.46875 
Q 25.046875 56.78125 22.90625 56.78125 
Q 21.296875 56.78125 20.1875 57.875 
Q 19.09375 58.984375 19.09375 60.59375 
z
" id="Cmmi10-105"/>
       <path d="M 7.71875 1.703125 
Q 7.71875 2.296875 7.8125 2.59375 
L 15.28125 32.421875 
Q 16.015625 35.203125 16.015625 37.3125 
Q 16.015625 41.609375 13.09375 41.609375 
Q 9.96875 41.609375 8.453125 37.859375 
Q 6.9375 34.125 5.515625 28.421875 
Q 5.515625 28.125 5.21875 27.953125 
Q 4.9375 27.78125 4.6875 27.78125 
L 3.515625 27.78125 
Q 3.171875 27.78125 2.921875 28.140625 
Q 2.6875 28.515625 2.6875 28.8125 
Q 3.765625 33.15625 4.765625 36.171875 
Q 5.765625 39.203125 7.890625 41.6875 
Q 10.015625 44.1875 13.1875 44.1875 
Q 16.9375 44.1875 19.8125 41.8125 
Q 22.703125 39.453125 22.703125 35.796875 
Q 25.6875 39.703125 29.6875 41.9375 
Q 33.6875 44.1875 38.1875 44.1875 
Q 41.75 44.1875 44.328125 42.96875 
Q 46.921875 41.75 48.359375 39.28125 
Q 49.8125 36.8125 49.8125 33.40625 
Q 49.8125 29.296875 47.96875 23.484375 
Q 46.140625 17.671875 43.40625 10.5 
Q 42 7.234375 42 4.5 
Q 42 1.515625 44.28125 1.515625 
Q 48.1875 1.515625 50.796875 5.703125 
Q 53.421875 9.90625 54.5 14.703125 
Q 54.6875 15.28125 55.328125 15.28125 
L 56.5 15.28125 
Q 56.890625 15.28125 57.15625 15.03125 
Q 57.421875 14.796875 57.421875 14.40625 
Q 57.421875 14.3125 57.328125 14.109375 
Q 55.953125 8.453125 52.5625 3.65625 
Q 49.171875 -1.125 44.09375 -1.125 
Q 40.578125 -1.125 38.078125 1.296875 
Q 35.59375 3.71875 35.59375 7.171875 
Q 35.59375 9.03125 36.375 11.078125 
Q 37.640625 14.359375 39.28125 18.890625 
Q 40.921875 23.4375 41.96875 27.578125 
Q 43.015625 31.734375 43.015625 34.90625 
Q 43.015625 37.703125 41.859375 39.65625 
Q 40.71875 41.609375 37.984375 41.609375 
Q 34.328125 41.609375 31.25 39.984375 
Q 28.171875 38.375 25.875 35.71875 
Q 23.578125 33.0625 21.6875 29.390625 
L 14.890625 2.203125 
Q 14.546875 0.828125 13.34375 -0.140625 
Q 12.15625 -1.125 10.6875 -1.125 
Q 9.46875 -1.125 8.59375 -0.34375 
Q 7.71875 0.4375 7.71875 1.703125 
z
" id="Cmmi10-110"/>
      </defs>
      <use transform="translate(0 0.609375)" xlink:href="#Cmmi10-66"/>
      <use transform="translate(75.78125 0.609375)" xlink:href="#Cmmi10-97"/>
      <use transform="translate(128.564453 0.609375)" xlink:href="#Cmmi10-115"/>
      <use transform="translate(175.341797 0.609375)" xlink:href="#Cmmi10-101"/>
      <use transform="translate(221.826172 0.609375)" xlink:href="#Cmmi10-108"/>
      <use transform="translate(251.611328 0.609375)" xlink:href="#Cmmi10-105"/>
      <use transform="translate(286.035156 0.609375)" xlink:href="#Cmmi10-110"/>
      <use transform="translate(346.044922 0.609375)" xlink:href="#Cmmi10-101"/>
     </g>
    </g>
    <g id="line2d_51">
     <path d="M 191.105424 619.995625 
L 231.105424 619.995625 
" style="fill:none;stroke:#e41a1c;stroke-linecap:square;stroke-opacity:0.8;stroke-width:3;"/>
    </g>
    <g id="line2d_52">
     <g>
      <use style="fill:#e41a1c;fill-opacity:0.8;stroke:#000000;stroke-linejoin:miter;stroke-opacity:0.8;" x="211.105424" xlink:href="#m991922a016" y="619.995625"/>
     </g>
    </g>
    <g id="text_14">
     <!-- $N_m=4,K=5$ -->
     <g transform="translate(247.105424 626.995625)scale(0.2 -0.2)">
      <use transform="translate(0 0.6875)" xlink:href="#Cmmi10-78"/>
      <use transform="translate(80.322266 -16.31875)scale(0.7)" xlink:href="#Cmmi10-109"/>
      <use transform="translate(165.713281 0.6875)" xlink:href="#Cmr10-61"/>
      <use transform="translate(260.957422 0.6875)" xlink:href="#Cmr10-52"/>
      <use transform="translate(310.957422 0.6875)" xlink:href="#Cmmi10-59"/>
      <use transform="translate(356.201563 0.6875)" xlink:href="#Cmmi10-75"/>
      <use transform="translate(458.672266 0.6875)" xlink:href="#Cmr10-61"/>
      <use transform="translate(553.916406 0.6875)" xlink:href="#Cmr10-53"/>
     </g>
    </g>
    <g id="line2d_53">
     <path d="M 191.105424 649.351875 
L 231.105424 649.351875 
" style="fill:none;stroke:#377eb8;stroke-linecap:square;stroke-opacity:0.8;stroke-width:3;"/>
    </g>
    <g id="line2d_54">
     <g>
      <use style="fill:#377eb8;fill-opacity:0.8;stroke:#000000;stroke-linejoin:miter;stroke-opacity:0.8;" x="211.105424" xlink:href="#m3cdaae2044" y="649.351875"/>
     </g>
    </g>
    <g id="text_15">
     <!-- $N_m=4,K=10$ -->
     <g transform="translate(247.105424 656.351875)scale(0.2 -0.2)">
      <use transform="translate(0 0.6875)" xlink:href="#Cmmi10-78"/>
      <use transform="translate(80.322266 -16.31875)scale(0.7)" xlink:href="#Cmmi10-109"/>
      <use transform="translate(165.713281 0.6875)" xlink:href="#Cmr10-61"/>
      <use transform="translate(260.957422 0.6875)" xlink:href="#Cmr10-52"/>
      <use transform="translate(310.957422 0.6875)" xlink:href="#Cmmi10-59"/>
      <use transform="translate(356.201563 0.6875)" xlink:href="#Cmmi10-75"/>
      <use transform="translate(458.672266 0.6875)" xlink:href="#Cmr10-61"/>
      <use transform="translate(553.916406 0.6875)" xlink:href="#Cmr10-49"/>
      <use transform="translate(603.916406 0.6875)" xlink:href="#Cmr10-48"/>
     </g>
    </g>
    <g id="line2d_55">
     <path d="M 191.105424 678.708125 
L 231.105424 678.708125 
" style="fill:none;stroke:#4daf4a;stroke-linecap:square;stroke-opacity:0.8;stroke-width:3;"/>
    </g>
    <g id="line2d_56">
     <g>
      <use style="fill:#4daf4a;fill-opacity:0.8;stroke:#000000;stroke-linejoin:miter;stroke-opacity:0.8;" x="211.105424" xlink:href="#m00034cb9c7" y="678.708125"/>
     </g>
    </g>
    <g id="text_16">
     <!-- $N_m=5,K=5$ -->
     <g transform="translate(247.105424 685.708125)scale(0.2 -0.2)">
      <use transform="translate(0 0.6875)" xlink:href="#Cmmi10-78"/>
      <use transform="translate(80.322266 -16.31875)scale(0.7)" xlink:href="#Cmmi10-109"/>
      <use transform="translate(165.713281 0.6875)" xlink:href="#Cmr10-61"/>
      <use transform="translate(260.957422 0.6875)" xlink:href="#Cmr10-53"/>
      <use transform="translate(310.957422 0.6875)" xlink:href="#Cmmi10-59"/>
      <use transform="translate(356.201563 0.6875)" xlink:href="#Cmmi10-75"/>
      <use transform="translate(458.672266 0.6875)" xlink:href="#Cmr10-61"/>
      <use transform="translate(553.916406 0.6875)" xlink:href="#Cmr10-53"/>
     </g>
    </g>
    <g id="line2d_57">
     <path d="M 191.105424 708.064375 
L 231.105424 708.064375 
" style="fill:none;stroke:#984ea3;stroke-linecap:square;stroke-opacity:0.8;stroke-width:3;"/>
    </g>
    <g id="line2d_58">
     <g>
      <use style="fill:#984ea3;fill-opacity:0.8;stroke:#000000;stroke-linejoin:miter;stroke-opacity:0.8;" x="211.105424" xlink:href="#m4fa2a7f0e6" y="708.064375"/>
     </g>
    </g>
    <g id="text_17">
     <!-- $N_m=5,K=15$ -->
     <g transform="translate(247.105424 715.064375)scale(0.2 -0.2)">
      <use transform="translate(0 0.6875)" xlink:href="#Cmmi10-78"/>
      <use transform="translate(80.322266 -16.31875)scale(0.7)" xlink:href="#Cmmi10-109"/>
      <use transform="translate(165.713281 0.6875)" xlink:href="#Cmr10-61"/>
      <use transform="translate(260.957422 0.6875)" xlink:href="#Cmr10-53"/>
      <use transform="translate(310.957422 0.6875)" xlink:href="#Cmmi10-59"/>
      <use transform="translate(356.201563 0.6875)" xlink:href="#Cmmi10-75"/>
      <use transform="translate(458.672266 0.6875)" xlink:href="#Cmr10-61"/>
      <use transform="translate(553.916406 0.6875)" xlink:href="#Cmr10-49"/>
      <use transform="translate(603.916406 0.6875)" xlink:href="#Cmr10-53"/>
     </g>
    </g>
    <g id="line2d_59">
     <path d="M 191.105424 737.420625 
L 231.105424 737.420625 
" style="fill:none;stroke:#808080;stroke-linecap:square;stroke-opacity:0.9;stroke-width:3;"/>
    </g>
    <g id="line2d_60">
     <g>
      <use style="fill:#808080;fill-opacity:0.9;stroke:#000000;stroke-linejoin:miter;stroke-opacity:0.9;" x="211.105424" xlink:href="#m47709394c0" y="737.420625"/>
     </g>
    </g>
    <g id="text_18">
     <!-- $Baseline$ -->
     <g transform="translate(247.105424 744.420625)scale(0.2 -0.2)">
      <use transform="translate(0 0.609375)" xlink:href="#Cmmi10-66"/>
      <use transform="translate(75.78125 0.609375)" xlink:href="#Cmmi10-97"/>
      <use transform="translate(128.564453 0.609375)" xlink:href="#Cmmi10-115"/>
      <use transform="translate(175.341797 0.609375)" xlink:href="#Cmmi10-101"/>
      <use transform="translate(221.826172 0.609375)" xlink:href="#Cmmi10-108"/>
      <use transform="translate(251.611328 0.609375)" xlink:href="#Cmmi10-105"/>
      <use transform="translate(286.035156 0.609375)" xlink:href="#Cmmi10-110"/>
      <use transform="translate(346.044922 0.609375)" xlink:href="#Cmmi10-101"/>
     </g>
    </g>
   </g>
  </g>
 </g>
 <defs>
  <clipPath id="p713877870f">
   <rect height="759.38" width="307.777924" x="88.1275" y="7.2"/>
  </clipPath>
 </defs>
</svg>
